<?xml version="1.0" encoding="utf-8" standalone="no"?>
<!DOCTYPE svg PUBLIC "-//W3C//DTD SVG 1.1//EN"
  "http://www.w3.org/Graphics/SVG/1.1/DTD/svg11.dtd">
<svg xmlns:xlink="http://www.w3.org/1999/xlink" width="720pt" height="309.6pt" viewBox="0 0 720 309.6" xmlns="http://www.w3.org/2000/svg" version="1.1">
 <metadata>
  <rdf:RDF xmlns:dc="http://purl.org/dc/elements/1.1/" xmlns:cc="http://creativecommons.org/ns#" xmlns:rdf="http://www.w3.org/1999/02/22-rdf-syntax-ns#">
   <cc:Work>
    <dc:type rdf:resource="http://purl.org/dc/dcmitype/StillImage"/>
    <dc:date>2026-10-04T19:11:27.070845</dc:date>
    <dc:format>image/svg+xml</dc:format>
    <dc:creator>
     <cc:Agent>
      <dc:title>Matplotlib v3.11.2, https://matplotlib.org/</dc:title>
     </cc:Agent>
    </dc:creator>
   </cc:Work>
  </rdf:RDF>
 </metadata>
 <defs>
  <style type="text/css">*{stroke-linejoin: round; stroke-linecap: butt}</style>
 </defs>
 <g id="figure_1">
  <g id="patch_1">
   <path d="M 0 309.6 
L 720 309.6 
L 720 0 
L 0 0 
z
" style="fill: #ffffff"/>
  </g>
  <g id="axes_1">
   <g id="patch_2">
    <path d="M 51.562344 251.997656 
L 357.84 251.997656 
L 357.84 65.643047 
L 51.562344 65.643047 
z
" style="fill: #ffffff"/>
   </g>
   <g id="matplotlib.axis_1">
    <g id="xtick_1">
     <g id="line2d_1">
      <defs>
       <path id="md634daf8fa" d="M 0 0 
L 0 3.5 
" style="stroke: #000000; stroke-width: 0.8"/>
      </defs>
      <g>
       <use xlink:href="#md634daf8fa" x="64.248401" y="251.997656" style="stroke: #000000; stroke-width: 0.8"/>
      </g>
     </g>
     <g id="text_1">
      <!-- 1 -->
      <g transform="translate(61.067151 266.595312) scale(0.1 -0.1)">
       <defs>
        <path id="DejaVuSans-14" d="M 794 531 
L 1825 531 
L 1825 4091 
L 703 3866 
L 703 4441 
L 1819 4666 
L 2450 4666 
L 2450 531 
L 3481 531 
L 3481 0 
L 794 0 
L 794 531 
z
" transform="scale(0.015625)"/>
       </defs>
       <use xlink:href="#DejaVuSans-14"/>
      </g>
     </g>
    </g>
    <g id="xtick_2">
     <g id="line2d_2">
      <g>
       <use xlink:href="#md634daf8fa" x="100.494277" y="251.997656" style="stroke: #000000; stroke-width: 0.8"/>
      </g>
     </g>
     <g id="text_2">
      <!-- 2 -->
      <g transform="translate(97.313027 266.595312) scale(0.1 -0.1)">
       <defs>
        <path id="DejaVuSans-15" d="M 1228 531 
L 3431 531 
L 3431 0 
L 469 0 
L 469 531 
Q 828 903 1448 1529 
Q 2069 2156 2228 2338 
Q 2531 2678 2651 2914 
Q 2772 3150 2772 3378 
Q 2772 3750 2511 3984 
Q 2250 4219 1831 4219 
Q 1534 4219 1204 4116 
Q 875 4013 500 3803 
L 500 4441 
Q 881 4594 1212 4672 
Q 1544 4750 1819 4750 
Q 2544 4750 2975 4387 
Q 3406 4025 3406 3419 
Q 3406 3131 3298 2873 
Q 3191 2616 2906 2266 
Q 2828 2175 2409 1742 
Q 1991 1309 1228 531 
z
" transform="scale(0.015625)"/>
       </defs>
       <use xlink:href="#DejaVuSans-15"/>
      </g>
     </g>
    </g>
    <g id="xtick_3">
     <g id="line2d_3">
      <g>
       <use xlink:href="#md634daf8fa" x="172.98603" y="251.997656" style="stroke: #000000; stroke-width: 0.8"/>
      </g>
     </g>
     <g id="text_3">
      <!-- 4 -->
      <g transform="translate(169.80478 266.595312) scale(0.1 -0.1)">
       <defs>
        <path id="DejaVuSans-17" d="M 2419 4116 
L 825 1625 
L 2419 1625 
L 2419 4116 
z
M 2253 4666 
L 3047 4666 
L 3047 1625 
L 3713 1625 
L 3713 1100 
L 3047 1100 
L 3047 0 
L 2419 0 
L 2419 1100 
L 313 1100 
L 313 1709 
L 2253 4666 
z
" transform="scale(0.015625)"/>
       </defs>
       <use xlink:href="#DejaVuSans-17"/>
      </g>
     </g>
    </g>
    <g id="xtick_4">
     <g id="line2d_4">
      <g>
       <use xlink:href="#md634daf8fa" x="317.969536" y="251.997656" style="stroke: #000000; stroke-width: 0.8"/>
      </g>
     </g>
     <g id="text_4">
      <!-- 8 -->
      <g transform="translate(314.788286 266.595312) scale(0.1 -0.1)">
       <defs>
        <path id="DejaVuSans-1b" d="M 2034 2216 
Q 1584 2216 1326 1975 
Q 1069 1734 1069 1313 
Q 1069 891 1326 650 
Q 1584 409 2034 409 
Q 2484 409 2743 651 
Q 3003 894 3003 1313 
Q 3003 1734 2745 1975 
Q 2488 2216 2034 2216 
z
M 1403 2484 
Q 997 2584 770 2862 
Q 544 3141 544 3541 
Q 544 4100 942 4425 
Q 1341 4750 2034 4750 
Q 2731 4750 3128 4425 
Q 3525 4100 3525 3541 
Q 3525 3141 3298 2862 
Q 3072 2584 2669 2484 
Q 3125 2378 3379 2068 
Q 3634 1759 3634 1313 
Q 3634 634 3220 271 
Q 2806 -91 2034 -91 
Q 1263 -91 848 271 
Q 434 634 434 1313 
Q 434 1759 690 2068 
Q 947 2378 1403 2484 
z
M 1172 3481 
Q 1172 3119 1398 2916 
Q 1625 2713 2034 2713 
Q 2441 2713 2670 2916 
Q 2900 3119 2900 3481 
Q 2900 3844 2670 4047 
Q 2441 4250 2034 4250 
Q 1625 4250 1398 4047 
Q 1172 3844 1172 3481 
z
" transform="scale(0.015625)"/>
       </defs>
       <use xlink:href="#DejaVuSans-1b"/>
      </g>
     </g>
    </g>
    <g id="text_5">
     <!-- Configured concurrency -->
     <g transform="translate(144.941797 280.596094) scale(0.1 -0.1)">
      <defs>
       <path id="DejaVuSans-26" d="M 4122 4306 
L 4122 3641 
Q 3803 3938 3442 4084 
Q 3081 4231 2675 4231 
Q 1875 4231 1450 3742 
Q 1025 3253 1025 2328 
Q 1025 1406 1450 917 
Q 1875 428 2675 428 
Q 3081 428 3442 575 
Q 3803 722 4122 1019 
L 4122 359 
Q 3791 134 3420 21 
Q 3050 -91 2638 -91 
Q 1578 -91 968 557 
Q 359 1206 359 2328 
Q 359 3453 968 4101 
Q 1578 4750 2638 4750 
Q 3056 4750 3426 4639 
Q 3797 4528 4122 4306 
z
" transform="scale(0.015625)"/>
       <path id="DejaVuSans-52" d="M 1959 3097 
Q 1497 3097 1228 2736 
Q 959 2375 959 1747 
Q 959 1119 1226 758 
Q 1494 397 1959 397 
Q 2419 397 2687 759 
Q 2956 1122 2956 1747 
Q 2956 2369 2687 2733 
Q 2419 3097 1959 3097 
z
M 1959 3584 
Q 2709 3584 3137 3096 
Q 3566 2609 3566 1747 
Q 3566 888 3137 398 
Q 2709 -91 1959 -91 
Q 1206 -91 779 398 
Q 353 888 353 1747 
Q 353 2609 779 3096 
Q 1206 3584 1959 3584 
z
" transform="scale(0.015625)"/>
       <path id="DejaVuSans-51" d="M 3513 2113 
L 3513 0 
L 2938 0 
L 2938 2094 
Q 2938 2591 2744 2837 
Q 2550 3084 2163 3084 
Q 1697 3084 1428 2787 
Q 1159 2491 1159 1978 
L 1159 0 
L 581 0 
L 581 3500 
L 1159 3500 
L 1159 2956 
Q 1366 3272 1645 3428 
Q 1925 3584 2291 3584 
Q 2894 3584 3203 3211 
Q 3513 2838 3513 2113 
z
" transform="scale(0.015625)"/>
       <path id="DejaVuSans-13af" d="M 3431 3500 
L 3431 0 
L 2853 0 
L 2853 3053 
L 1275 3053 
L 1275 0 
L 697 0 
L 697 3053 
L 147 3053 
L 147 3500 
L 697 3500 
L 697 3744 
Q 697 4316 967 4589 
Q 1238 4863 1797 4863 
L 2375 4863 
L 2375 4384 
L 1825 4384 
Q 1516 4384 1395 4259 
Q 1275 4134 1275 3809 
L 1275 3500 
L 3431 3500 
z
M 2853 4856 
L 3431 4856 
L 3431 4128 
L 2853 4128 
L 2853 4856 
z
" transform="scale(0.015625)"/>
       <path id="DejaVuSans-4a" d="M 2906 1791 
Q 2906 2416 2648 2759 
Q 2391 3103 1925 3103 
Q 1463 3103 1205 2759 
Q 947 2416 947 1791 
Q 947 1169 1205 825 
Q 1463 481 1925 481 
Q 2391 481 2648 825 
Q 2906 1169 2906 1791 
z
M 3481 434 
Q 3481 -459 3084 -895 
Q 2688 -1331 1869 -1331 
Q 1566 -1331 1297 -1286 
Q 1028 -1241 775 -1147 
L 775 -588 
Q 1028 -725 1275 -790 
Q 1522 -856 1778 -856 
Q 2344 -856 2625 -561 
Q 2906 -266 2906 331 
L 2906 616 
Q 2728 306 2450 153 
Q 2172 0 1784 0 
Q 1141 0 747 490 
Q 353 981 353 1791 
Q 353 2603 747 3093 
Q 1141 3584 1784 3584 
Q 2172 3584 2450 3431 
Q 2728 3278 2906 2969 
L 2906 3500 
L 3481 3500 
L 3481 434 
z
" transform="scale(0.015625)"/>
       <path id="DejaVuSans-58" d="M 544 1381 
L 544 3500 
L 1119 3500 
L 1119 1403 
Q 1119 906 1312 657 
Q 1506 409 1894 409 
Q 2359 409 2629 706 
Q 2900 1003 2900 1516 
L 2900 3500 
L 3475 3500 
L 3475 0 
L 2900 0 
L 2900 538 
Q 2691 219 2414 64 
Q 2138 -91 1772 -91 
Q 1169 -91 856 284 
Q 544 659 544 1381 
z
M 1991 3584 
L 1991 3584 
z
" transform="scale(0.015625)"/>
       <path id="DejaVuSans-55" d="M 2631 2963 
Q 2534 3019 2420 3045 
Q 2306 3072 2169 3072 
Q 1681 3072 1420 2755 
Q 1159 2438 1159 1844 
L 1159 0 
L 581 0 
L 581 3500 
L 1159 3500 
L 1159 2956 
Q 1341 3275 1631 3429 
Q 1922 3584 2338 3584 
Q 2397 3584 2469 3576 
Q 2541 3569 2628 3553 
L 2631 2963 
z
" transform="scale(0.015625)"/>
       <path id="DejaVuSans-48" d="M 3597 1894 
L 3597 1613 
L 953 1613 
Q 991 1019 1311 708 
Q 1631 397 2203 397 
Q 2534 397 2845 478 
Q 3156 559 3463 722 
L 3463 178 
Q 3153 47 2828 -22 
Q 2503 -91 2169 -91 
Q 1331 -91 842 396 
Q 353 884 353 1716 
Q 353 2575 817 3079 
Q 1281 3584 2069 3584 
Q 2775 3584 3186 3129 
Q 3597 2675 3597 1894 
z
M 3022 2063 
Q 3016 2534 2758 2815 
Q 2500 3097 2075 3097 
Q 1594 3097 1305 2825 
Q 1016 2553 972 2059 
L 3022 2063 
z
" transform="scale(0.015625)"/>
       <path id="DejaVuSans-47" d="M 2906 2969 
L 2906 4863 
L 3481 4863 
L 3481 0 
L 2906 0 
L 2906 525 
Q 2725 213 2448 61 
Q 2172 -91 1784 -91 
Q 1150 -91 751 415 
Q 353 922 353 1747 
Q 353 2572 751 3078 
Q 1150 3584 1784 3584 
Q 2172 3584 2448 3432 
Q 2725 3281 2906 2969 
z
M 947 1747 
Q 947 1113 1208 752 
Q 1469 391 1925 391 
Q 2381 391 2643 752 
Q 2906 1113 2906 1747 
Q 2906 2381 2643 2742 
Q 2381 3103 1925 3103 
Q 1469 3103 1208 2742 
Q 947 2381 947 1747 
z
" transform="scale(0.015625)"/>
       <path id="DejaVuSans-3" transform="scale(0.015625)"/>
       <path id="DejaVuSans-46" d="M 3122 3366 
L 3122 2828 
Q 2878 2963 2633 3030 
Q 2388 3097 2138 3097 
Q 1578 3097 1268 2742 
Q 959 2388 959 1747 
Q 959 1106 1268 751 
Q 1578 397 2138 397 
Q 2388 397 2633 464 
Q 2878 531 3122 666 
L 3122 134 
Q 2881 22 2623 -34 
Q 2366 -91 2075 -91 
Q 1284 -91 818 406 
Q 353 903 353 1747 
Q 353 2603 823 3093 
Q 1294 3584 2113 3584 
Q 2378 3584 2631 3529 
Q 2884 3475 3122 3366 
z
" transform="scale(0.015625)"/>
       <path id="DejaVuSans-5c" d="M 2059 -325 
Q 1816 -950 1584 -1140 
Q 1353 -1331 966 -1331 
L 506 -1331 
L 506 -850 
L 844 -850 
Q 1081 -850 1212 -737 
Q 1344 -625 1503 -206 
L 1606 56 
L 191 3500 
L 800 3500 
L 1894 763 
L 2988 3500 
L 3597 3500 
L 2059 -325 
z
" transform="scale(0.015625)"/>
      </defs>
      <use xlink:href="#DejaVuSans-26"/>
      <use xlink:href="#DejaVuSans-52" transform="translate(69.828125 0)"/>
      <use xlink:href="#DejaVuSans-51" transform="translate(131.015625 0)"/>
      <use xlink:href="#DejaVuSans-13af" transform="translate(194.390625 0)"/>
      <use xlink:href="#DejaVuSans-4a" transform="translate(257.375 0)"/>
      <use xlink:href="#DejaVuSans-58" transform="translate(320.859375 0)"/>
      <use xlink:href="#DejaVuSans-55" transform="translate(384.234375 0)"/>
      <use xlink:href="#DejaVuSans-48" transform="translate(423.140625 0)"/>
      <use xlink:href="#DejaVuSans-47" transform="translate(484.671875 0)"/>
      <use xlink:href="#DejaVuSans-3" transform="translate(548.15625 0)"/>
      <use xlink:href="#DejaVuSans-46" transform="translate(579.9375 0)"/>
      <use xlink:href="#DejaVuSans-52" transform="translate(634.921875 0)"/>
      <use xlink:href="#DejaVuSans-51" transform="translate(696.109375 0)"/>
      <use xlink:href="#DejaVuSans-46" transform="translate(759.484375 0)"/>
      <use xlink:href="#DejaVuSans-58" transform="translate(814.46875 0)"/>
      <use xlink:href="#DejaVuSans-55" transform="translate(877.84375 0)"/>
      <use xlink:href="#DejaVuSans-55" transform="translate(917.203125 0)"/>
      <use xlink:href="#DejaVuSans-48" transform="translate(956.109375 0)"/>
      <use xlink:href="#DejaVuSans-51" transform="translate(1017.640625 0)"/>
      <use xlink:href="#DejaVuSans-46" transform="translate(1081.015625 0)"/>
      <use xlink:href="#DejaVuSans-5c" transform="translate(1136 0)"/>
     </g>
    </g>
   </g>
   <g id="matplotlib.axis_2">
    <g id="ytick_1">
     <g id="line2d_5">
      <path d="M 51.562344 251.997656 
L 357.84 251.997656 
" clip-path="url(#pf7dce4a092)" style="fill: none; stroke: #b0b0b0; stroke-opacity: 0.22; stroke-width: 0.8; stroke-linecap: square"/>
     </g>
     <g id="line2d_6">
      <defs>
       <path id="m63de053757" d="M 0 0 
L -3.5 0 
" style="stroke: #000000; stroke-width: 0.8"/>
      </defs>
      <g>
       <use xlink:href="#m63de053757" x="51.562344" y="251.997656" style="stroke: #000000; stroke-width: 0.8"/>
      </g>
     </g>
     <g id="text_6">
      <!-- 0 -->
      <g transform="translate(38.199844 255.796484) scale(0.1 -0.1)">
       <defs>
        <path id="DejaVuSans-13" d="M 2034 4250 
Q 1547 4250 1301 3770 
Q 1056 3291 1056 2328 
Q 1056 1369 1301 889 
Q 1547 409 2034 409 
Q 2525 409 2770 889 
Q 3016 1369 3016 2328 
Q 3016 3291 2770 3770 
Q 2525 4250 2034 4250 
z
M 2034 4750 
Q 2819 4750 3233 4129 
Q 3647 3509 3647 2328 
Q 3647 1150 3233 529 
Q 2819 -91 2034 -91 
Q 1250 -91 836 529 
Q 422 1150 422 2328 
Q 422 3509 836 4129 
Q 1250 4750 2034 4750 
z
" transform="scale(0.015625)"/>
       </defs>
       <use xlink:href="#DejaVuSans-13"/>
      </g>
     </g>
    </g>
    <g id="ytick_2">
     <g id="line2d_7">
      <path d="M 51.562344 229.53934 
L 357.84 229.53934 
" clip-path="url(#pf7dce4a092)" style="fill: none; stroke: #b0b0b0; stroke-opacity: 0.22; stroke-width: 0.8; stroke-linecap: square"/>
     </g>
     <g id="line2d_8">
      <g>
       <use xlink:href="#m63de053757" x="51.562344" y="229.53934" style="stroke: #000000; stroke-width: 0.8"/>
      </g>
     </g>
     <g id="text_7">
      <!-- 50 -->
      <g transform="translate(31.837344 233.338168) scale(0.1 -0.1)">
       <defs>
        <path id="DejaVuSans-18" d="M 691 4666 
L 3169 4666 
L 3169 4134 
L 1269 4134 
L 1269 2991 
Q 1406 3038 1543 3061 
Q 1681 3084 1819 3084 
Q 2600 3084 3056 2656 
Q 3513 2228 3513 1497 
Q 3513 744 3044 326 
Q 2575 -91 1722 -91 
Q 1428 -91 1123 -41 
Q 819 9 494 109 
L 494 744 
Q 775 591 1075 516 
Q 1375 441 1709 441 
Q 2250 441 2565 725 
Q 2881 1009 2881 1497 
Q 2881 1984 2565 2268 
Q 2250 2553 1709 2553 
Q 1456 2553 1204 2497 
Q 953 2441 691 2322 
L 691 4666 
z
" transform="scale(0.015625)"/>
       </defs>
       <use xlink:href="#DejaVuSans-18"/>
       <use xlink:href="#DejaVuSans-13" transform="translate(63.625 0)"/>
      </g>
     </g>
    </g>
    <g id="ytick_3">
     <g id="line2d_9">
      <path d="M 51.562344 207.081023 
L 357.84 207.081023 
" clip-path="url(#pf7dce4a092)" style="fill: none; stroke: #b0b0b0; stroke-opacity: 0.22; stroke-width: 0.8; stroke-linecap: square"/>
     </g>
     <g id="line2d_10">
      <g>
       <use xlink:href="#m63de053757" x="51.562344" y="207.081023" style="stroke: #000000; stroke-width: 0.8"/>
      </g>
     </g>
     <g id="text_8">
      <!-- 100 -->
      <g transform="translate(25.474844 210.879851) scale(0.1 -0.1)">
       <use xlink:href="#DejaVuSans-14"/>
       <use xlink:href="#DejaVuSans-13" transform="translate(63.625 0)"/>
       <use xlink:href="#DejaVuSans-13" transform="translate(127.25 0)"/>
      </g>
     </g>
    </g>
    <g id="ytick_4">
     <g id="line2d_11">
      <path d="M 51.562344 184.622706 
L 357.84 184.622706 
" clip-path="url(#pf7dce4a092)" style="fill: none; stroke: #b0b0b0; stroke-opacity: 0.22; stroke-width: 0.8; stroke-linecap: square"/>
     </g>
     <g id="line2d_12">
      <g>
       <use xlink:href="#m63de053757" x="51.562344" y="184.622706" style="stroke: #000000; stroke-width: 0.8"/>
      </g>
     </g>
     <g id="text_9">
      <!-- 150 -->
      <g transform="translate(25.474844 188.421534) scale(0.1 -0.1)">
       <use xlink:href="#DejaVuSans-14"/>
       <use xlink:href="#DejaVuSans-18" transform="translate(63.625 0)"/>
       <use xlink:href="#DejaVuSans-13" transform="translate(127.25 0)"/>
      </g>
     </g>
    </g>
    <g id="ytick_5">
     <g id="line2d_13">
      <path d="M 51.562344 162.16439 
L 357.84 162.16439 
" clip-path="url(#pf7dce4a092)" style="fill: none; stroke: #b0b0b0; stroke-opacity: 0.22; stroke-width: 0.8; stroke-linecap: square"/>
     </g>
     <g id="line2d_14">
      <g>
       <use xlink:href="#m63de053757" x="51.562344" y="162.16439" style="stroke: #000000; stroke-width: 0.8"/>
      </g>
     </g>
     <g id="text_10">
      <!-- 200 -->
      <g transform="translate(25.474844 165.963218) scale(0.1 -0.1)">
       <use xlink:href="#DejaVuSans-15"/>
       <use xlink:href="#DejaVuSans-13" transform="translate(63.625 0)"/>
       <use xlink:href="#DejaVuSans-13" transform="translate(127.25 0)"/>
      </g>
     </g>
    </g>
    <g id="ytick_6">
     <g id="line2d_15">
      <path d="M 51.562344 139.706073 
L 357.84 139.706073 
" clip-path="url(#pf7dce4a092)" style="fill: none; stroke: #b0b0b0; stroke-opacity: 0.22; stroke-width: 0.8; stroke-linecap: square"/>
     </g>
     <g id="line2d_16">
      <g>
       <use xlink:href="#m63de053757" x="51.562344" y="139.706073" style="stroke: #000000; stroke-width: 0.8"/>
      </g>
     </g>
     <g id="text_11">
      <!-- 250 -->
      <g transform="translate(25.474844 143.504901) scale(0.1 -0.1)">
       <use xlink:href="#DejaVuSans-15"/>
       <use xlink:href="#DejaVuSans-18" transform="translate(63.625 0)"/>
       <use xlink:href="#DejaVuSans-13" transform="translate(127.25 0)"/>
      </g>
     </g>
    </g>
    <g id="ytick_7">
     <g id="line2d_17">
      <path d="M 51.562344 117.247756 
L 357.84 117.247756 
" clip-path="url(#pf7dce4a092)" style="fill: none; stroke: #b0b0b0; stroke-opacity: 0.22; stroke-width: 0.8; stroke-linecap: square"/>
     </g>
     <g id="line2d_18">
      <g>
       <use xlink:href="#m63de053757" x="51.562344" y="117.247756" style="stroke: #000000; stroke-width: 0.8"/>
      </g>
     </g>
     <g id="text_12">
      <!-- 300 -->
      <g transform="translate(25.474844 121.046584) scale(0.1 -0.1)">
       <defs>
        <path id="DejaVuSans-16" d="M 2597 2516 
Q 3050 2419 3304 2112 
Q 3559 1806 3559 1356 
Q 3559 666 3084 287 
Q 2609 -91 1734 -91 
Q 1441 -91 1130 -33 
Q 819 25 488 141 
L 488 750 
Q 750 597 1062 519 
Q 1375 441 1716 441 
Q 2309 441 2620 675 
Q 2931 909 2931 1356 
Q 2931 1769 2642 2001 
Q 2353 2234 1838 2234 
L 1294 2234 
L 1294 2753 
L 1863 2753 
Q 2328 2753 2575 2939 
Q 2822 3125 2822 3475 
Q 2822 3834 2567 4026 
Q 2313 4219 1838 4219 
Q 1578 4219 1281 4162 
Q 984 4106 628 3988 
L 628 4550 
Q 988 4650 1302 4700 
Q 1616 4750 1894 4750 
Q 2613 4750 3031 4423 
Q 3450 4097 3450 3541 
Q 3450 3153 3228 2886 
Q 3006 2619 2597 2516 
z
" transform="scale(0.015625)"/>
       </defs>
       <use xlink:href="#DejaVuSans-16"/>
       <use xlink:href="#DejaVuSans-13" transform="translate(63.625 0)"/>
       <use xlink:href="#DejaVuSans-13" transform="translate(127.25 0)"/>
      </g>
     </g>
    </g>
    <g id="ytick_8">
     <g id="line2d_19">
      <path d="M 51.562344 94.789439 
L 357.84 94.789439 
" clip-path="url(#pf7dce4a092)" style="fill: none; stroke: #b0b0b0; stroke-opacity: 0.22; stroke-width: 0.8; stroke-linecap: square"/>
     </g>
     <g id="line2d_20">
      <g>
       <use xlink:href="#m63de053757" x="51.562344" y="94.789439" style="stroke: #000000; stroke-width: 0.8"/>
      </g>
     </g>
     <g id="text_13">
      <!-- 350 -->
      <g transform="translate(25.474844 98.588268) scale(0.1 -0.1)">
       <use xlink:href="#DejaVuSans-16"/>
       <use xlink:href="#DejaVuSans-18" transform="translate(63.625 0)"/>
       <use xlink:href="#DejaVuSans-13" transform="translate(127.25 0)"/>
      </g>
     </g>
    </g>
    <g id="ytick_9">
     <g id="line2d_21">
      <path d="M 51.562344 72.331123 
L 357.84 72.331123 
" clip-path="url(#pf7dce4a092)" style="fill: none; stroke: #b0b0b0; stroke-opacity: 0.22; stroke-width: 0.8; stroke-linecap: square"/>
     </g>
     <g id="line2d_22">
      <g>
       <use xlink:href="#m63de053757" x="51.562344" y="72.331123" style="stroke: #000000; stroke-width: 0.8"/>
      </g>
     </g>
     <g id="text_14">
      <!-- 400 -->
      <g transform="translate(25.474844 76.129951) scale(0.1 -0.1)">
       <use xlink:href="#DejaVuSans-17"/>
       <use xlink:href="#DejaVuSans-13" transform="translate(63.625 0)"/>
       <use xlink:href="#DejaVuSans-13" transform="translate(127.25 0)"/>
      </g>
     </g>
    </g>
    <g id="text_15">
     <!-- Output throughput (tokens/s) -->
     <g transform="translate(19.0725 232.092227) rotate(-90) scale(0.1 -0.1)">
      <defs>
       <path id="DejaVuSans-32" d="M 2522 4238 
Q 1834 4238 1429 3725 
Q 1025 3213 1025 2328 
Q 1025 1447 1429 934 
Q 1834 422 2522 422 
Q 3209 422 3611 934 
Q 4013 1447 4013 2328 
Q 4013 3213 3611 3725 
Q 3209 4238 2522 4238 
z
M 2522 4750 
Q 3503 4750 4090 4092 
Q 4678 3434 4678 2328 
Q 4678 1225 4090 567 
Q 3503 -91 2522 -91 
Q 1538 -91 948 565 
Q 359 1222 359 2328 
Q 359 3434 948 4092 
Q 1538 4750 2522 4750 
z
" transform="scale(0.015625)"/>
       <path id="DejaVuSans-57" d="M 1172 4494 
L 1172 3500 
L 2356 3500 
L 2356 3053 
L 1172 3053 
L 1172 1153 
Q 1172 725 1289 603 
Q 1406 481 1766 481 
L 2356 481 
L 2356 0 
L 1766 0 
Q 1100 0 847 248 
Q 594 497 594 1153 
L 594 3053 
L 172 3053 
L 172 3500 
L 594 3500 
L 594 4494 
L 1172 4494 
z
" transform="scale(0.015625)"/>
       <path id="DejaVuSans-53" d="M 1159 525 
L 1159 -1331 
L 581 -1331 
L 581 3500 
L 1159 3500 
L 1159 2969 
Q 1341 3281 1617 3432 
Q 1894 3584 2278 3584 
Q 2916 3584 3314 3078 
Q 3713 2572 3713 1747 
Q 3713 922 3314 415 
Q 2916 -91 2278 -91 
Q 1894 -91 1617 61 
Q 1341 213 1159 525 
z
M 3116 1747 
Q 3116 2381 2855 2742 
Q 2594 3103 2138 3103 
Q 1681 3103 1420 2742 
Q 1159 2381 1159 1747 
Q 1159 1113 1420 752 
Q 1681 391 2138 391 
Q 2594 391 2855 752 
Q 3116 1113 3116 1747 
z
" transform="scale(0.015625)"/>
       <path id="DejaVuSans-4b" d="M 3513 2113 
L 3513 0 
L 2938 0 
L 2938 2094 
Q 2938 2591 2744 2837 
Q 2550 3084 2163 3084 
Q 1697 3084 1428 2787 
Q 1159 2491 1159 1978 
L 1159 0 
L 581 0 
L 581 4863 
L 1159 4863 
L 1159 2956 
Q 1366 3272 1645 3428 
Q 1925 3584 2291 3584 
Q 2894 3584 3203 3211 
Q 3513 2838 3513 2113 
z
" transform="scale(0.015625)"/>
       <path id="DejaVuSans-b" d="M 1984 4856 
Q 1566 4138 1362 3434 
Q 1159 2731 1159 2009 
Q 1159 1288 1364 580 
Q 1569 -128 1984 -844 
L 1484 -844 
Q 1016 -109 783 600 
Q 550 1309 550 2009 
Q 550 2706 781 3412 
Q 1013 4119 1484 4856 
L 1984 4856 
z
" transform="scale(0.015625)"/>
       <path id="DejaVuSans-4e" d="M 581 4863 
L 1159 4863 
L 1159 1991 
L 2875 3500 
L 3609 3500 
L 1753 1863 
L 3688 0 
L 2938 0 
L 1159 1709 
L 1159 0 
L 581 0 
L 581 4863 
z
" transform="scale(0.015625)"/>
       <path id="DejaVuSans-56" d="M 2834 3397 
L 2834 2853 
Q 2591 2978 2328 3040 
Q 2066 3103 1784 3103 
Q 1356 3103 1142 2972 
Q 928 2841 928 2578 
Q 928 2378 1081 2264 
Q 1234 2150 1697 2047 
L 1894 2003 
Q 2506 1872 2764 1633 
Q 3022 1394 3022 966 
Q 3022 478 2636 193 
Q 2250 -91 1575 -91 
Q 1294 -91 989 -36 
Q 684 19 347 128 
L 347 722 
Q 666 556 975 473 
Q 1284 391 1588 391 
Q 1994 391 2212 530 
Q 2431 669 2431 922 
Q 2431 1156 2273 1281 
Q 2116 1406 1581 1522 
L 1381 1569 
Q 847 1681 609 1914 
Q 372 2147 372 2553 
Q 372 3047 722 3315 
Q 1072 3584 1716 3584 
Q 2034 3584 2315 3537 
Q 2597 3491 2834 3397 
z
" transform="scale(0.015625)"/>
       <path id="DejaVuSans-12" d="M 1625 4666 
L 2156 4666 
L 531 -594 
L 0 -594 
L 1625 4666 
z
" transform="scale(0.015625)"/>
       <path id="DejaVuSans-c" d="M 513 4856 
L 1013 4856 
Q 1481 4119 1714 3412 
Q 1947 2706 1947 2009 
Q 1947 1309 1714 600 
Q 1481 -109 1013 -844 
L 513 -844 
Q 928 -128 1133 580 
Q 1338 1288 1338 2009 
Q 1338 2731 1133 3434 
Q 928 4138 513 4856 
z
" transform="scale(0.015625)"/>
      </defs>
      <use xlink:href="#DejaVuSans-32"/>
      <use xlink:href="#DejaVuSans-58" transform="translate(78.71875 0)"/>
      <use xlink:href="#DejaVuSans-57" transform="translate(142.09375 0)"/>
      <use xlink:href="#DejaVuSans-53" transform="translate(181.296875 0)"/>
      <use xlink:href="#DejaVuSans-58" transform="translate(244.78125 0)"/>
      <use xlink:href="#DejaVuSans-57" transform="translate(308.15625 0)"/>
      <use xlink:href="#DejaVuSans-3" transform="translate(347.359375 0)"/>
      <use xlink:href="#DejaVuSans-57" transform="translate(379.140625 0)"/>
      <use xlink:href="#DejaVuSans-4b" transform="translate(418.34375 0)"/>
      <use xlink:href="#DejaVuSans-55" transform="translate(481.71875 0)"/>
      <use xlink:href="#DejaVuSans-52" transform="translate(520.625 0)"/>
      <use xlink:href="#DejaVuSans-58" transform="translate(581.8125 0)"/>
      <use xlink:href="#DejaVuSans-4a" transform="translate(645.1875 0)"/>
      <use xlink:href="#DejaVuSans-4b" transform="translate(708.671875 0)"/>
      <use xlink:href="#DejaVuSans-53" transform="translate(772.046875 0)"/>
      <use xlink:href="#DejaVuSans-58" transform="translate(835.53125 0)"/>
      <use xlink:href="#DejaVuSans-57" transform="translate(898.90625 0)"/>
      <use xlink:href="#DejaVuSans-3" transform="translate(938.109375 0)"/>
      <use xlink:href="#DejaVuSans-b" transform="translate(969.890625 0)"/>
      <use xlink:href="#DejaVuSans-57" transform="translate(1008.90625 0)"/>
      <use xlink:href="#DejaVuSans-52" transform="translate(1048.109375 0)"/>
      <use xlink:href="#DejaVuSans-4e" transform="translate(1109.296875 0)"/>
      <use xlink:href="#DejaVuSans-48" transform="translate(1163.640625 0)"/>
      <use xlink:href="#DejaVuSans-51" transform="translate(1225.171875 0)"/>
      <use xlink:href="#DejaVuSans-56" transform="translate(1288.546875 0)"/>
      <use xlink:href="#DejaVuSans-12" transform="translate(1340.640625 0)"/>
      <use xlink:href="#DejaVuSans-56" transform="translate(1374.328125 0)"/>
      <use xlink:href="#DejaVuSans-c" transform="translate(1426.421875 0)"/>
     </g>
    </g>
   </g>
   <g id="LineCollection_1">
    <path d="M 64.248401 193.541602 
L 64.248401 193.495452 
" clip-path="url(#pf7dce4a092)" style="fill: none; stroke: #2463a6; stroke-width: 2"/>
    <path d="M 100.494277 161.98061 
L 100.494277 161.856861 
" clip-path="url(#pf7dce4a092)" style="fill: none; stroke: #2463a6; stroke-width: 2"/>
    <path d="M 172.98603 122.188027 
L 172.98603 121.198098 
" clip-path="url(#pf7dce4a092)" style="fill: none; stroke: #2463a6; stroke-width: 2"/>
    <path d="M 317.969536 77.370875 
L 317.969536 74.152535 
" clip-path="url(#pf7dce4a092)" style="fill: none; stroke: #2463a6; stroke-width: 2"/>
   </g>
   <g id="line2d_23">
    <defs>
     <path id="m159631a84b" d="M 3 0 
L -3 -0 
" style="stroke: #2463a6"/>
    </defs>
    <g clip-path="url(#pf7dce4a092)">
     <use xlink:href="#m159631a84b" x="64.248401" y="193.541602" style="fill: #2463a6; stroke: #2463a6"/>
     <use xlink:href="#m159631a84b" x="100.494277" y="161.98061" style="fill: #2463a6; stroke: #2463a6"/>
     <use xlink:href="#m159631a84b" x="172.98603" y="122.188027" style="fill: #2463a6; stroke: #2463a6"/>
     <use xlink:href="#m159631a84b" x="317.969536" y="77.370875" style="fill: #2463a6; stroke: #2463a6"/>
    </g>
   </g>
   <g id="line2d_24">
    <g clip-path="url(#pf7dce4a092)">
     <use xlink:href="#m159631a84b" x="64.248401" y="193.495452" style="fill: #2463a6; stroke: #2463a6"/>
     <use xlink:href="#m159631a84b" x="100.494277" y="161.856861" style="fill: #2463a6; stroke: #2463a6"/>
     <use xlink:href="#m159631a84b" x="172.98603" y="121.198098" style="fill: #2463a6; stroke: #2463a6"/>
     <use xlink:href="#m159631a84b" x="317.969536" y="74.152535" style="fill: #2463a6; stroke: #2463a6"/>
    </g>
   </g>
   <g id="LineCollection_2">
    <path d="M 64.248401 196.630052 
L 64.248401 196.528614 
" clip-path="url(#pf7dce4a092)" style="fill: none; stroke: #158477; stroke-width: 2"/>
    <path d="M 100.494277 165.477653 
L 100.494277 164.843562 
" clip-path="url(#pf7dce4a092)" style="fill: none; stroke: #158477; stroke-width: 2"/>
    <path d="M 172.98603 129.841 
L 172.98603 128.822471 
" clip-path="url(#pf7dce4a092)" style="fill: none; stroke: #158477; stroke-width: 2"/>
    <path d="M 317.969536 88.501105 
L 317.969536 86.292699 
" clip-path="url(#pf7dce4a092)" style="fill: none; stroke: #158477; stroke-width: 2"/>
   </g>
   <g id="line2d_25">
    <defs>
     <path id="mc3b3120356" d="M 3 0 
L -3 -0 
" style="stroke: #158477"/>
    </defs>
    <g clip-path="url(#pf7dce4a092)">
     <use xlink:href="#mc3b3120356" x="64.248401" y="196.630052" style="fill: #158477; stroke: #158477"/>
     <use xlink:href="#mc3b3120356" x="100.494277" y="165.477653" style="fill: #158477; stroke: #158477"/>
     <use xlink:href="#mc3b3120356" x="172.98603" y="129.841" style="fill: #158477; stroke: #158477"/>
     <use xlink:href="#mc3b3120356" x="317.969536" y="88.501105" style="fill: #158477; stroke: #158477"/>
    </g>
   </g>
   <g id="line2d_26">
    <g clip-path="url(#pf7dce4a092)">
     <use xlink:href="#mc3b3120356" x="64.248401" y="196.528614" style="fill: #158477; stroke: #158477"/>
     <use xlink:href="#mc3b3120356" x="100.494277" y="164.843562" style="fill: #158477; stroke: #158477"/>
     <use xlink:href="#mc3b3120356" x="172.98603" y="128.822471" style="fill: #158477; stroke: #158477"/>
     <use xlink:href="#mc3b3120356" x="317.969536" y="86.292699" style="fill: #158477; stroke: #158477"/>
    </g>
   </g>
   <g id="LineCollection_3">
    <path d="M 64.248401 244.342294 
L 64.248401 244.319678 
" clip-path="url(#pf7dce4a092)" style="fill: none; stroke: #9263a4; stroke-width: 2"/>
    <path d="M 100.494277 237.198027 
L 100.494277 237.052447 
" clip-path="url(#pf7dce4a092)" style="fill: none; stroke: #9263a4; stroke-width: 2"/>
    <path d="M 172.98603 222.856038 
L 172.98603 222.824589 
" clip-path="url(#pf7dce4a092)" style="fill: none; stroke: #9263a4; stroke-width: 2"/>
    <path d="M 317.969536 197.602906 
L 317.969536 197.308969 
" clip-path="url(#pf7dce4a092)" style="fill: none; stroke: #9263a4; stroke-width: 2"/>
   </g>
   <g id="line2d_27">
    <defs>
     <path id="mab7d7640e1" d="M 3 0 
L -3 -0 
" style="stroke: #9263a4"/>
    </defs>
    <g clip-path="url(#pf7dce4a092)">
     <use xlink:href="#mab7d7640e1" x="64.248401" y="244.342294" style="fill: #9263a4; stroke: #9263a4"/>
     <use xlink:href="#mab7d7640e1" x="100.494277" y="237.198027" style="fill: #9263a4; stroke: #9263a4"/>
     <use xlink:href="#mab7d7640e1" x="172.98603" y="222.856038" style="fill: #9263a4; stroke: #9263a4"/>
     <use xlink:href="#mab7d7640e1" x="317.969536" y="197.602906" style="fill: #9263a4; stroke: #9263a4"/>
    </g>
   </g>
   <g id="line2d_28">
    <g clip-path="url(#pf7dce4a092)">
     <use xlink:href="#mab7d7640e1" x="64.248401" y="244.319678" style="fill: #9263a4; stroke: #9263a4"/>
     <use xlink:href="#mab7d7640e1" x="100.494277" y="237.052447" style="fill: #9263a4; stroke: #9263a4"/>
     <use xlink:href="#mab7d7640e1" x="172.98603" y="222.824589" style="fill: #9263a4; stroke: #9263a4"/>
     <use xlink:href="#mab7d7640e1" x="317.969536" y="197.308969" style="fill: #9263a4; stroke: #9263a4"/>
    </g>
   </g>
   <g id="line2d_29">
    <path d="M 64.248401 193.518527 
L 100.494277 161.918735 
L 172.98603 121.693062 
L 317.969536 75.761705 
" clip-path="url(#pf7dce4a092)" style="fill: none; stroke: #2463a6; stroke-width: 2; stroke-linecap: square"/>
    <defs>
     <path id="m1e61b86c45" d="M 0 2.5 
C 0.663008 2.5 1.29895 2.236584 1.767767 1.767767 
C 2.236584 1.29895 2.5 0.663008 2.5 0 
C 2.5 -0.663008 2.236584 -1.29895 1.767767 -1.767767 
C 1.29895 -2.236584 0.663008 -2.5 0 -2.5 
C -0.663008 -2.5 -1.29895 -2.236584 -1.767767 -1.767767 
C -2.236584 -1.29895 -2.5 -0.663008 -2.5 0 
C -2.5 0.663008 -2.236584 1.29895 -1.767767 1.767767 
C -1.29895 2.236584 -0.663008 2.5 0 2.5 
z
" style="stroke: #2463a6"/>
    </defs>
    <g clip-path="url(#pf7dce4a092)">
     <use xlink:href="#m1e61b86c45" x="64.248401" y="193.518527" style="fill: #2463a6; stroke: #2463a6"/>
     <use xlink:href="#m1e61b86c45" x="100.494277" y="161.918735" style="fill: #2463a6; stroke: #2463a6"/>
     <use xlink:href="#m1e61b86c45" x="172.98603" y="121.693062" style="fill: #2463a6; stroke: #2463a6"/>
     <use xlink:href="#m1e61b86c45" x="317.969536" y="75.761705" style="fill: #2463a6; stroke: #2463a6"/>
    </g>
   </g>
   <g id="line2d_30">
    <path d="M 64.248401 196.579333 
L 100.494277 165.160608 
L 172.98603 129.331735 
L 317.969536 87.396902 
" clip-path="url(#pf7dce4a092)" style="fill: none; stroke: #158477; stroke-width: 2; stroke-linecap: square"/>
    <defs>
     <path id="m3a0776c2f0" d="M 0 2.5 
C 0.663008 2.5 1.29895 2.236584 1.767767 1.767767 
C 2.236584 1.29895 2.5 0.663008 2.5 0 
C 2.5 -0.663008 2.236584 -1.29895 1.767767 -1.767767 
C 1.29895 -2.236584 0.663008 -2.5 0 -2.5 
C -0.663008 -2.5 -1.29895 -2.236584 -1.767767 -1.767767 
C -2.236584 -1.29895 -2.5 -0.663008 -2.5 0 
C -2.5 0.663008 -2.236584 1.29895 -1.767767 1.767767 
C -1.29895 2.236584 -0.663008 2.5 0 2.5 
z
" style="stroke: #158477"/>
    </defs>
    <g clip-path="url(#pf7dce4a092)">
     <use xlink:href="#m3a0776c2f0" x="64.248401" y="196.579333" style="fill: #158477; stroke: #158477"/>
     <use xlink:href="#m3a0776c2f0" x="100.494277" y="165.160608" style="fill: #158477; stroke: #158477"/>
     <use xlink:href="#m3a0776c2f0" x="172.98603" y="129.331735" style="fill: #158477; stroke: #158477"/>
     <use xlink:href="#m3a0776c2f0" x="317.969536" y="87.396902" style="fill: #158477; stroke: #158477"/>
    </g>
   </g>
   <g id="line2d_31">
    <path d="M 64.248401 244.330986 
L 100.494277 237.125237 
L 172.98603 222.840314 
L 317.969536 197.455938 
" clip-path="url(#pf7dce4a092)" style="fill: none; stroke: #9263a4; stroke-width: 2; stroke-linecap: square"/>
    <defs>
     <path id="mc2074f1aa3" d="M 0 2.5 
C 0.663008 2.5 1.29895 2.236584 1.767767 1.767767 
C 2.236584 1.29895 2.5 0.663008 2.5 0 
C 2.5 -0.663008 2.236584 -1.29895 1.767767 -1.767767 
C 1.29895 -2.236584 0.663008 -2.5 0 -2.5 
C -0.663008 -2.5 -1.29895 -2.236584 -1.767767 -1.767767 
C -2.236584 -1.29895 -2.5 -0.663008 -2.5 0 
C -2.5 0.663008 -2.236584 1.29895 -1.767767 1.767767 
C -1.29895 2.236584 -0.663008 2.5 0 2.5 
z
" style="stroke: #9263a4"/>
    </defs>
    <g clip-path="url(#pf7dce4a092)">
     <use xlink:href="#mc2074f1aa3" x="64.248401" y="244.330986" style="fill: #9263a4; stroke: #9263a4"/>
     <use xlink:href="#mc2074f1aa3" x="100.494277" y="237.125237" style="fill: #9263a4; stroke: #9263a4"/>
     <use xlink:href="#mc2074f1aa3" x="172.98603" y="222.840314" style="fill: #9263a4; stroke: #9263a4"/>
     <use xlink:href="#mc2074f1aa3" x="317.969536" y="197.455938" style="fill: #9263a4; stroke: #9263a4"/>
    </g>
   </g>
   <g id="patch_3">
    <path d="M 51.562344 251.997656 
L 51.562344 65.643047 
" style="fill: none; stroke: #000000; stroke-width: 0.8; stroke-linejoin: miter; stroke-linecap: square"/>
   </g>
   <g id="patch_4">
    <path d="M 51.562344 251.997656 
L 357.84 251.997656 
" style="fill: none; stroke: #000000; stroke-width: 0.8; stroke-linejoin: miter; stroke-linecap: square"/>
   </g>
   <g id="text_16">
    <!-- 392.4 -->
    <g style="fill: #2463a6" transform="translate(324.969536 78.099596) scale(0.09 -0.09)">
     <defs>
      <path id="DejaVuSans-1c" d="M 703 97 
L 703 672 
Q 941 559 1184 500 
Q 1428 441 1663 441 
Q 2288 441 2617 861 
Q 2947 1281 2994 2138 
Q 2813 1869 2534 1725 
Q 2256 1581 1919 1581 
Q 1219 1581 811 2004 
Q 403 2428 403 3163 
Q 403 3881 828 4315 
Q 1253 4750 1959 4750 
Q 2769 4750 3195 4129 
Q 3622 3509 3622 2328 
Q 3622 1225 3098 567 
Q 2575 -91 1691 -91 
Q 1453 -91 1209 -44 
Q 966 3 703 97 
z
M 1959 2075 
Q 2384 2075 2632 2365 
Q 2881 2656 2881 3163 
Q 2881 3666 2632 3958 
Q 2384 4250 1959 4250 
Q 1534 4250 1286 3958 
Q 1038 3666 1038 3163 
Q 1038 2656 1286 2365 
Q 1534 2075 1959 2075 
z
" transform="scale(0.015625)"/>
      <path id="DejaVuSans-11" d="M 684 794 
L 1344 794 
L 1344 0 
L 684 0 
L 684 794 
z
" transform="scale(0.015625)"/>
     </defs>
     <use xlink:href="#DejaVuSans-16"/>
     <use xlink:href="#DejaVuSans-1c" transform="translate(63.625 0)"/>
     <use xlink:href="#DejaVuSans-15" transform="translate(127.25 0)"/>
     <use xlink:href="#DejaVuSans-11" transform="translate(190.875 0)"/>
     <use xlink:href="#DejaVuSans-17" transform="translate(222.65625 0)"/>
    </g>
   </g>
   <g id="text_17">
    <!-- 366.5 -->
    <g style="fill: #158477" transform="translate(324.969536 89.734793) scale(0.09 -0.09)">
     <defs>
      <path id="DejaVuSans-19" d="M 2113 2584 
Q 1688 2584 1439 2293 
Q 1191 2003 1191 1497 
Q 1191 994 1439 701 
Q 1688 409 2113 409 
Q 2538 409 2786 701 
Q 3034 994 3034 1497 
Q 3034 2003 2786 2293 
Q 2538 2584 2113 2584 
z
M 3366 4563 
L 3366 3988 
Q 3128 4100 2886 4159 
Q 2644 4219 2406 4219 
Q 1781 4219 1451 3797 
Q 1122 3375 1075 2522 
Q 1259 2794 1537 2939 
Q 1816 3084 2150 3084 
Q 2853 3084 3261 2657 
Q 3669 2231 3669 1497 
Q 3669 778 3244 343 
Q 2819 -91 2113 -91 
Q 1303 -91 875 529 
Q 447 1150 447 2328 
Q 447 3434 972 4092 
Q 1497 4750 2381 4750 
Q 2619 4750 2861 4703 
Q 3103 4656 3366 4563 
z
" transform="scale(0.015625)"/>
     </defs>
     <use xlink:href="#DejaVuSans-16"/>
     <use xlink:href="#DejaVuSans-19" transform="translate(63.625 0)"/>
     <use xlink:href="#DejaVuSans-19" transform="translate(127.25 0)"/>
     <use xlink:href="#DejaVuSans-11" transform="translate(190.875 0)"/>
     <use xlink:href="#DejaVuSans-18" transform="translate(222.65625 0)"/>
    </g>
   </g>
   <g id="text_18">
    <!-- 121.4 -->
    <g style="fill: #9263a4" transform="translate(324.969536 199.793828) scale(0.09 -0.09)">
     <use xlink:href="#DejaVuSans-14"/>
     <use xlink:href="#DejaVuSans-15" transform="translate(63.625 0)"/>
     <use xlink:href="#DejaVuSans-14" transform="translate(127.25 0)"/>
     <use xlink:href="#DejaVuSans-11" transform="translate(190.875 0)"/>
     <use xlink:href="#DejaVuSans-17" transform="translate(222.65625 0)"/>
    </g>
   </g>
   <g id="text_19">
    <!-- Throughput under fixed load -->
    <g transform="translate(51.562344 59.643047) scale(0.12 -0.12)">
     <defs>
      <path id="DejaVuSans-37" d="M -19 4666 
L 3928 4666 
L 3928 4134 
L 2272 4134 
L 2272 0 
L 1638 0 
L 1638 4134 
L -19 4134 
L -19 4666 
z
" transform="scale(0.015625)"/>
      <path id="DejaVuSans-5b" d="M 3513 3500 
L 2247 1797 
L 3578 0 
L 2900 0 
L 1881 1375 
L 863 0 
L 184 0 
L 1544 1831 
L 300 3500 
L 978 3500 
L 1906 2253 
L 2834 3500 
L 3513 3500 
z
" transform="scale(0.015625)"/>
      <path id="DejaVuSans-4f" d="M 603 4863 
L 1178 4863 
L 1178 0 
L 603 0 
L 603 4863 
z
" transform="scale(0.015625)"/>
      <path id="DejaVuSans-44" d="M 2194 1759 
Q 1497 1759 1228 1600 
Q 959 1441 959 1056 
Q 959 750 1161 570 
Q 1363 391 1709 391 
Q 2188 391 2477 730 
Q 2766 1069 2766 1631 
L 2766 1759 
L 2194 1759 
z
M 3341 1997 
L 3341 0 
L 2766 0 
L 2766 531 
Q 2569 213 2275 61 
Q 1981 -91 1556 -91 
Q 1019 -91 701 211 
Q 384 513 384 1019 
Q 384 1609 779 1909 
Q 1175 2209 1959 2209 
L 2766 2209 
L 2766 2266 
Q 2766 2663 2505 2880 
Q 2244 3097 1772 3097 
Q 1472 3097 1187 3025 
Q 903 2953 641 2809 
L 641 3341 
Q 956 3463 1253 3523 
Q 1550 3584 1831 3584 
Q 2591 3584 2966 3190 
Q 3341 2797 3341 1997 
z
" transform="scale(0.015625)"/>
     </defs>
     <use xlink:href="#DejaVuSans-37"/>
     <use xlink:href="#DejaVuSans-4b" transform="translate(61.078125 0)"/>
     <use xlink:href="#DejaVuSans-55" transform="translate(124.453125 0)"/>
     <use xlink:href="#DejaVuSans-52" transform="translate(163.359375 0)"/>
     <use xlink:href="#DejaVuSans-58" transform="translate(224.546875 0)"/>
     <use xlink:href="#DejaVuSans-4a" transform="translate(287.921875 0)"/>
     <use xlink:href="#DejaVuSans-4b" transform="translate(351.40625 0)"/>
     <use xlink:href="#DejaVuSans-53" transform="translate(414.78125 0)"/>
     <use xlink:href="#DejaVuSans-58" transform="translate(478.265625 0)"/>
     <use xlink:href="#DejaVuSans-57" transform="translate(541.640625 0)"/>
     <use xlink:href="#DejaVuSans-3" transform="translate(580.84375 0)"/>
     <use xlink:href="#DejaVuSans-58" transform="translate(612.625 0)"/>
     <use xlink:href="#DejaVuSans-51" transform="translate(676 0)"/>
     <use xlink:href="#DejaVuSans-47" transform="translate(739.375 0)"/>
     <use xlink:href="#DejaVuSans-48" transform="translate(802.859375 0)"/>
     <use xlink:href="#DejaVuSans-55" transform="translate(864.390625 0)"/>
     <use xlink:href="#DejaVuSans-3" transform="translate(905.5 0)"/>
     <use xlink:href="#DejaVuSans-13af" transform="translate(937.28125 0)"/>
     <use xlink:href="#DejaVuSans-5b" transform="translate(1000.265625 0)"/>
     <use xlink:href="#DejaVuSans-48" transform="translate(1056.375 0)"/>
     <use xlink:href="#DejaVuSans-47" transform="translate(1117.90625 0)"/>
     <use xlink:href="#DejaVuSans-3" transform="translate(1181.390625 0)"/>
     <use xlink:href="#DejaVuSans-4f" transform="translate(1213.171875 0)"/>
     <use xlink:href="#DejaVuSans-52" transform="translate(1240.953125 0)"/>
     <use xlink:href="#DejaVuSans-44" transform="translate(1302.140625 0)"/>
     <use xlink:href="#DejaVuSans-47" transform="translate(1363.421875 0)"/>
    </g>
   </g>
   <g id="legend_1">
    <g id="LineCollection_4">
     <path d="M 67.712344 81.026719 
L 67.712344 72.526719 
" style="fill: none; stroke: #2463a6; stroke-width: 2"/>
    </g>
    <g id="line2d_32">
     <g>
      <use xlink:href="#m159631a84b" x="67.712344" y="81.026719" style="fill: #2463a6; stroke: #2463a6"/>
     </g>
    </g>
    <g id="line2d_33">
     <g>
      <use xlink:href="#m159631a84b" x="67.712344" y="72.526719" style="fill: #2463a6; stroke: #2463a6"/>
     </g>
    </g>
    <g id="line2d_34">
     <path d="M 59.212344 76.776719 
L 76.212344 76.776719 
" style="fill: none; stroke: #2463a6; stroke-width: 2; stroke-linecap: square"/>
    </g>
    <g id="line2d_35">
     <g>
      <use xlink:href="#m1e61b86c45" x="67.712344" y="76.776719" style="fill: #2463a6; stroke: #2463a6"/>
     </g>
    </g>
    <g id="text_20">
     <!-- TP compiled + graph -->
     <g transform="translate(83.012344 79.751719) scale(0.085 -0.085)">
      <defs>
       <path id="DejaVuSans-33" d="M 1259 4147 
L 1259 2394 
L 2053 2394 
Q 2494 2394 2734 2622 
Q 2975 2850 2975 3272 
Q 2975 3691 2734 3919 
Q 2494 4147 2053 4147 
L 1259 4147 
z
M 628 4666 
L 2053 4666 
Q 2838 4666 3239 4311 
Q 3641 3956 3641 3272 
Q 3641 2581 3239 2228 
Q 2838 1875 2053 1875 
L 1259 1875 
L 1259 0 
L 628 0 
L 628 4666 
z
" transform="scale(0.015625)"/>
       <path id="DejaVuSans-50" d="M 3328 2828 
Q 3544 3216 3844 3400 
Q 4144 3584 4550 3584 
Q 5097 3584 5394 3201 
Q 5691 2819 5691 2113 
L 5691 0 
L 5113 0 
L 5113 2094 
Q 5113 2597 4934 2840 
Q 4756 3084 4391 3084 
Q 3944 3084 3684 2787 
Q 3425 2491 3425 1978 
L 3425 0 
L 2847 0 
L 2847 2094 
Q 2847 2600 2669 2842 
Q 2491 3084 2119 3084 
Q 1678 3084 1418 2786 
Q 1159 2488 1159 1978 
L 1159 0 
L 581 0 
L 581 3500 
L 1159 3500 
L 1159 2956 
Q 1356 3278 1631 3431 
Q 1906 3584 2284 3584 
Q 2666 3584 2933 3390 
Q 3200 3197 3328 2828 
z
" transform="scale(0.015625)"/>
       <path id="DejaVuSans-4c" d="M 603 3500 
L 1178 3500 
L 1178 0 
L 603 0 
L 603 3500 
z
M 603 4863 
L 1178 4863 
L 1178 4134 
L 603 4134 
L 603 4863 
z
" transform="scale(0.015625)"/>
       <path id="DejaVuSans-e" d="M 2944 4013 
L 2944 2272 
L 4684 2272 
L 4684 1741 
L 2944 1741 
L 2944 0 
L 2419 0 
L 2419 1741 
L 678 1741 
L 678 2272 
L 2419 2272 
L 2419 4013 
L 2944 4013 
z
" transform="scale(0.015625)"/>
      </defs>
      <use xlink:href="#DejaVuSans-37"/>
      <use xlink:href="#DejaVuSans-33" transform="translate(61.078125 0)"/>
      <use xlink:href="#DejaVuSans-3" transform="translate(121.375 0)"/>
      <use xlink:href="#DejaVuSans-46" transform="translate(153.15625 0)"/>
      <use xlink:href="#DejaVuSans-52" transform="translate(208.140625 0)"/>
      <use xlink:href="#DejaVuSans-50" transform="translate(269.328125 0)"/>
      <use xlink:href="#DejaVuSans-53" transform="translate(366.734375 0)"/>
      <use xlink:href="#DejaVuSans-4c" transform="translate(430.21875 0)"/>
      <use xlink:href="#DejaVuSans-4f" transform="translate(458 0)"/>
      <use xlink:href="#DejaVuSans-48" transform="translate(485.78125 0)"/>
      <use xlink:href="#DejaVuSans-47" transform="translate(547.3125 0)"/>
      <use xlink:href="#DejaVuSans-3" transform="translate(610.796875 0)"/>
      <use xlink:href="#DejaVuSans-e" transform="translate(642.578125 0)"/>
      <use xlink:href="#DejaVuSans-3" transform="translate(726.375 0)"/>
      <use xlink:href="#DejaVuSans-4a" transform="translate(758.15625 0)"/>
      <use xlink:href="#DejaVuSans-55" transform="translate(821.640625 0)"/>
      <use xlink:href="#DejaVuSans-44" transform="translate(862.75 0)"/>
      <use xlink:href="#DejaVuSans-53" transform="translate(924.03125 0)"/>
      <use xlink:href="#DejaVuSans-4b" transform="translate(987.515625 0)"/>
     </g>
    </g>
    <g id="LineCollection_5">
     <path d="M 67.712344 93.777383 
L 67.712344 85.277383 
" style="fill: none; stroke: #158477; stroke-width: 2"/>
    </g>
    <g id="line2d_36">
     <g>
      <use xlink:href="#mc3b3120356" x="67.712344" y="93.777383" style="fill: #158477; stroke: #158477"/>
     </g>
    </g>
    <g id="line2d_37">
     <g>
      <use xlink:href="#mc3b3120356" x="67.712344" y="85.277383" style="fill: #158477; stroke: #158477"/>
     </g>
    </g>
    <g id="line2d_38">
     <path d="M 59.212344 89.527383 
L 76.212344 89.527383 
" style="fill: none; stroke: #158477; stroke-width: 2; stroke-linecap: square"/>
    </g>
    <g id="line2d_39">
     <g>
      <use xlink:href="#m3a0776c2f0" x="67.712344" y="89.527383" style="fill: #158477; stroke: #158477"/>
     </g>
    </g>
    <g id="text_21">
     <!-- EP compiled + graph -->
     <g transform="translate(83.012344 92.502383) scale(0.085 -0.085)">
      <defs>
       <path id="DejaVuSans-28" d="M 628 4666 
L 3578 4666 
L 3578 4134 
L 1259 4134 
L 1259 2753 
L 3481 2753 
L 3481 2222 
L 1259 2222 
L 1259 531 
L 3634 531 
L 3634 0 
L 628 0 
L 628 4666 
z
" transform="scale(0.015625)"/>
      </defs>
      <use xlink:href="#DejaVuSans-28"/>
      <use xlink:href="#DejaVuSans-33" transform="translate(63.1875 0)"/>
      <use xlink:href="#DejaVuSans-3" transform="translate(123.484375 0)"/>
      <use xlink:href="#DejaVuSans-46" transform="translate(155.265625 0)"/>
      <use xlink:href="#DejaVuSans-52" transform="translate(210.25 0)"/>
      <use xlink:href="#DejaVuSans-50" transform="translate(271.4375 0)"/>
      <use xlink:href="#DejaVuSans-53" transform="translate(368.84375 0)"/>
      <use xlink:href="#DejaVuSans-4c" transform="translate(432.328125 0)"/>
      <use xlink:href="#DejaVuSans-4f" transform="translate(460.109375 0)"/>
      <use xlink:href="#DejaVuSans-48" transform="translate(487.890625 0)"/>
      <use xlink:href="#DejaVuSans-47" transform="translate(549.421875 0)"/>
      <use xlink:href="#DejaVuSans-3" transform="translate(612.90625 0)"/>
      <use xlink:href="#DejaVuSans-e" transform="translate(644.6875 0)"/>
      <use xlink:href="#DejaVuSans-3" transform="translate(728.484375 0)"/>
      <use xlink:href="#DejaVuSans-4a" transform="translate(760.265625 0)"/>
      <use xlink:href="#DejaVuSans-55" transform="translate(823.75 0)"/>
      <use xlink:href="#DejaVuSans-44" transform="translate(864.859375 0)"/>
      <use xlink:href="#DejaVuSans-53" transform="translate(926.140625 0)"/>
      <use xlink:href="#DejaVuSans-4b" transform="translate(989.625 0)"/>
     </g>
    </g>
    <g id="LineCollection_6">
     <path d="M 67.712344 106.528047 
L 67.712344 98.028047 
" style="fill: none; stroke: #9263a4; stroke-width: 2"/>
    </g>
    <g id="line2d_40">
     <g>
      <use xlink:href="#mab7d7640e1" x="67.712344" y="106.528047" style="fill: #9263a4; stroke: #9263a4"/>
     </g>
    </g>
    <g id="line2d_41">
     <g>
      <use xlink:href="#mab7d7640e1" x="67.712344" y="98.028047" style="fill: #9263a4; stroke: #9263a4"/>
     </g>
    </g>
    <g id="line2d_42">
     <path d="M 59.212344 102.278047 
L 76.212344 102.278047 
" style="fill: none; stroke: #9263a4; stroke-width: 2; stroke-linecap: square"/>
    </g>
    <g id="line2d_43">
     <g>
      <use xlink:href="#mc2074f1aa3" x="67.712344" y="102.278047" style="fill: #9263a4; stroke: #9263a4"/>
     </g>
    </g>
    <g id="text_22">
     <!-- TP eager -->
     <g transform="translate(83.012344 105.253047) scale(0.085 -0.085)">
      <use xlink:href="#DejaVuSans-37"/>
      <use xlink:href="#DejaVuSans-33" transform="translate(61.078125 0)"/>
      <use xlink:href="#DejaVuSans-3" transform="translate(121.375 0)"/>
      <use xlink:href="#DejaVuSans-48" transform="translate(153.15625 0)"/>
      <use xlink:href="#DejaVuSans-44" transform="translate(214.6875 0)"/>
      <use xlink:href="#DejaVuSans-4a" transform="translate(275.96875 0)"/>
      <use xlink:href="#DejaVuSans-48" transform="translate(339.453125 0)"/>
      <use xlink:href="#DejaVuSans-55" transform="translate(400.984375 0)"/>
     </g>
    </g>
   </g>
  </g>
  <g id="axes_2">
   <g id="patch_5">
    <path d="M 402.922344 251.997656 
L 709.2 251.997656 
L 709.2 65.643047 
L 402.922344 65.643047 
z
" style="fill: #ffffff"/>
   </g>
   <g id="matplotlib.axis_3">
    <g id="xtick_5">
     <g id="line2d_44">
      <g>
       <use xlink:href="#md634daf8fa" x="415.608401" y="251.997656" style="stroke: #000000; stroke-width: 0.8"/>
      </g>
     </g>
     <g id="text_23">
      <!-- 1 -->
      <g transform="translate(412.427151 266.595312) scale(0.1 -0.1)">
       <use xlink:href="#DejaVuSans-14"/>
      </g>
     </g>
    </g>
    <g id="xtick_6">
     <g id="line2d_45">
      <g>
       <use xlink:href="#md634daf8fa" x="451.854277" y="251.997656" style="stroke: #000000; stroke-width: 0.8"/>
      </g>
     </g>
     <g id="text_24">
      <!-- 2 -->
      <g transform="translate(448.673027 266.595312) scale(0.1 -0.1)">
       <use xlink:href="#DejaVuSans-15"/>
      </g>
     </g>
    </g>
    <g id="xtick_7">
     <g id="line2d_46">
      <g>
       <use xlink:href="#md634daf8fa" x="524.34603" y="251.997656" style="stroke: #000000; stroke-width: 0.8"/>
      </g>
     </g>
     <g id="text_25">
      <!-- 4 -->
      <g transform="translate(521.16478 266.595312) scale(0.1 -0.1)">
       <use xlink:href="#DejaVuSans-17"/>
      </g>
     </g>
    </g>
    <g id="xtick_8">
     <g id="line2d_47">
      <g>
       <use xlink:href="#md634daf8fa" x="669.329536" y="251.997656" style="stroke: #000000; stroke-width: 0.8"/>
      </g>
     </g>
     <g id="text_26">
      <!-- 8 -->
      <g transform="translate(666.148286 266.595312) scale(0.1 -0.1)">
       <use xlink:href="#DejaVuSans-1b"/>
      </g>
     </g>
    </g>
    <g id="text_27">
     <!-- Configured concurrency -->
     <g transform="translate(496.301797 280.596094) scale(0.1 -0.1)">
      <use xlink:href="#DejaVuSans-26"/>
      <use xlink:href="#DejaVuSans-52" transform="translate(69.828125 0)"/>
      <use xlink:href="#DejaVuSans-51" transform="translate(131.015625 0)"/>
      <use xlink:href="#DejaVuSans-13af" transform="translate(194.390625 0)"/>
      <use xlink:href="#DejaVuSans-4a" transform="translate(257.375 0)"/>
      <use xlink:href="#DejaVuSans-58" transform="translate(320.859375 0)"/>
      <use xlink:href="#DejaVuSans-55" transform="translate(384.234375 0)"/>
      <use xlink:href="#DejaVuSans-48" transform="translate(423.140625 0)"/>
      <use xlink:href="#DejaVuSans-47" transform="translate(484.671875 0)"/>
      <use xlink:href="#DejaVuSans-3" transform="translate(548.15625 0)"/>
      <use xlink:href="#DejaVuSans-46" transform="translate(579.9375 0)"/>
      <use xlink:href="#DejaVuSans-52" transform="translate(634.921875 0)"/>
      <use xlink:href="#DejaVuSans-51" transform="translate(696.109375 0)"/>
      <use xlink:href="#DejaVuSans-46" transform="translate(759.484375 0)"/>
      <use xlink:href="#DejaVuSans-58" transform="translate(814.46875 0)"/>
      <use xlink:href="#DejaVuSans-55" transform="translate(877.84375 0)"/>
      <use xlink:href="#DejaVuSans-55" transform="translate(917.203125 0)"/>
      <use xlink:href="#DejaVuSans-48" transform="translate(956.109375 0)"/>
      <use xlink:href="#DejaVuSans-51" transform="translate(1017.640625 0)"/>
      <use xlink:href="#DejaVuSans-46" transform="translate(1081.015625 0)"/>
      <use xlink:href="#DejaVuSans-5c" transform="translate(1136 0)"/>
     </g>
    </g>
   </g>
   <g id="matplotlib.axis_4">
    <g id="ytick_10">
     <g id="line2d_48">
      <path d="M 402.922344 251.997656 
L 709.2 251.997656 
" clip-path="url(#pdaf659a720)" style="fill: none; stroke: #b0b0b0; stroke-opacity: 0.22; stroke-width: 0.8; stroke-linecap: square"/>
     </g>
     <g id="line2d_49">
      <g>
       <use xlink:href="#m63de053757" x="402.922344" y="251.997656" style="stroke: #000000; stroke-width: 0.8"/>
      </g>
     </g>
     <g id="text_28">
      <!-- 0 -->
      <g transform="translate(389.559844 255.796484) scale(0.1 -0.1)">
       <use xlink:href="#DejaVuSans-13"/>
      </g>
     </g>
    </g>
    <g id="ytick_11">
     <g id="line2d_50">
      <path d="M 402.922344 223.717921 
L 709.2 223.717921 
" clip-path="url(#pdaf659a720)" style="fill: none; stroke: #b0b0b0; stroke-opacity: 0.22; stroke-width: 0.8; stroke-linecap: square"/>
     </g>
     <g id="line2d_51">
      <g>
       <use xlink:href="#m63de053757" x="402.922344" y="223.717921" style="stroke: #000000; stroke-width: 0.8"/>
      </g>
     </g>
     <g id="text_29">
      <!-- 10 -->
      <g transform="translate(383.197344 227.516749) scale(0.1 -0.1)">
       <use xlink:href="#DejaVuSans-14"/>
       <use xlink:href="#DejaVuSans-13" transform="translate(63.625 0)"/>
      </g>
     </g>
    </g>
    <g id="ytick_12">
     <g id="line2d_52">
      <path d="M 402.922344 195.438185 
L 709.2 195.438185 
" clip-path="url(#pdaf659a720)" style="fill: none; stroke: #b0b0b0; stroke-opacity: 0.22; stroke-width: 0.8; stroke-linecap: square"/>
     </g>
     <g id="line2d_53">
      <g>
       <use xlink:href="#m63de053757" x="402.922344" y="195.438185" style="stroke: #000000; stroke-width: 0.8"/>
      </g>
     </g>
     <g id="text_30">
      <!-- 20 -->
      <g transform="translate(383.197344 199.237013) scale(0.1 -0.1)">
       <use xlink:href="#DejaVuSans-15"/>
       <use xlink:href="#DejaVuSans-13" transform="translate(63.625 0)"/>
      </g>
     </g>
    </g>
    <g id="ytick_13">
     <g id="line2d_54">
      <path d="M 402.922344 167.158449 
L 709.2 167.158449 
" clip-path="url(#pdaf659a720)" style="fill: none; stroke: #b0b0b0; stroke-opacity: 0.22; stroke-width: 0.8; stroke-linecap: square"/>
     </g>
     <g id="line2d_55">
      <g>
       <use xlink:href="#m63de053757" x="402.922344" y="167.158449" style="stroke: #000000; stroke-width: 0.8"/>
      </g>
     </g>
     <g id="text_31">
      <!-- 30 -->
      <g transform="translate(383.197344 170.957277) scale(0.1 -0.1)">
       <use xlink:href="#DejaVuSans-16"/>
       <use xlink:href="#DejaVuSans-13" transform="translate(63.625 0)"/>
      </g>
     </g>
    </g>
    <g id="ytick_14">
     <g id="line2d_56">
      <path d="M 402.922344 138.878713 
L 709.2 138.878713 
" clip-path="url(#pdaf659a720)" style="fill: none; stroke: #b0b0b0; stroke-opacity: 0.22; stroke-width: 0.8; stroke-linecap: square"/>
     </g>
     <g id="line2d_57">
      <g>
       <use xlink:href="#m63de053757" x="402.922344" y="138.878713" style="stroke: #000000; stroke-width: 0.8"/>
      </g>
     </g>
     <g id="text_32">
      <!-- 40 -->
      <g transform="translate(383.197344 142.677541) scale(0.1 -0.1)">
       <use xlink:href="#DejaVuSans-17"/>
       <use xlink:href="#DejaVuSans-13" transform="translate(63.625 0)"/>
      </g>
     </g>
    </g>
    <g id="ytick_15">
     <g id="line2d_58">
      <path d="M 402.922344 110.598978 
L 709.2 110.598978 
" clip-path="url(#pdaf659a720)" style="fill: none; stroke: #b0b0b0; stroke-opacity: 0.22; stroke-width: 0.8; stroke-linecap: square"/>
     </g>
     <g id="line2d_59">
      <g>
       <use xlink:href="#m63de053757" x="402.922344" y="110.598978" style="stroke: #000000; stroke-width: 0.8"/>
      </g>
     </g>
     <g id="text_33">
      <!-- 50 -->
      <g transform="translate(383.197344 114.397806) scale(0.1 -0.1)">
       <use xlink:href="#DejaVuSans-18"/>
       <use xlink:href="#DejaVuSans-13" transform="translate(63.625 0)"/>
      </g>
     </g>
    </g>
    <g id="ytick_16">
     <g id="line2d_60">
      <path d="M 402.922344 82.319242 
L 709.2 82.319242 
" clip-path="url(#pdaf659a720)" style="fill: none; stroke: #b0b0b0; stroke-opacity: 0.22; stroke-width: 0.8; stroke-linecap: square"/>
     </g>
     <g id="line2d_61">
      <g>
       <use xlink:href="#m63de053757" x="402.922344" y="82.319242" style="stroke: #000000; stroke-width: 0.8"/>
      </g>
     </g>
     <g id="text_34">
      <!-- 60 -->
      <g transform="translate(383.197344 86.11807) scale(0.1 -0.1)">
       <use xlink:href="#DejaVuSans-19"/>
       <use xlink:href="#DejaVuSans-13" transform="translate(63.625 0)"/>
      </g>
     </g>
    </g>
    <g id="text_35">
     <!-- Mean of per-round P50 TPOT (ms) -->
     <g transform="translate(376.795 243.328164) rotate(-90) scale(0.1 -0.1)">
      <defs>
       <path id="DejaVuSans-30" d="M 628 4666 
L 1569 4666 
L 2759 1491 
L 3956 4666 
L 4897 4666 
L 4897 0 
L 4281 0 
L 4281 4097 
L 3078 897 
L 2444 897 
L 1241 4097 
L 1241 0 
L 628 0 
L 628 4666 
z
" transform="scale(0.015625)"/>
       <path id="DejaVuSans-49" d="M 2375 4863 
L 2375 4384 
L 1825 4384 
Q 1516 4384 1395 4259 
Q 1275 4134 1275 3809 
L 1275 3500 
L 2222 3500 
L 2222 3053 
L 1275 3053 
L 1275 0 
L 697 0 
L 697 3053 
L 147 3053 
L 147 3500 
L 697 3500 
L 697 3744 
Q 697 4328 969 4595 
Q 1241 4863 1831 4863 
L 2375 4863 
z
" transform="scale(0.015625)"/>
       <path id="DejaVuSans-10" d="M 313 2009 
L 1997 2009 
L 1997 1497 
L 313 1497 
L 313 2009 
z
" transform="scale(0.015625)"/>
      </defs>
      <use xlink:href="#DejaVuSans-30"/>
      <use xlink:href="#DejaVuSans-48" transform="translate(86.28125 0)"/>
      <use xlink:href="#DejaVuSans-44" transform="translate(147.8125 0)"/>
      <use xlink:href="#DejaVuSans-51" transform="translate(209.09375 0)"/>
      <use xlink:href="#DejaVuSans-3" transform="translate(272.46875 0)"/>
      <use xlink:href="#DejaVuSans-52" transform="translate(304.25 0)"/>
      <use xlink:href="#DejaVuSans-49" transform="translate(365.4375 0)"/>
      <use xlink:href="#DejaVuSans-3" transform="translate(400.640625 0)"/>
      <use xlink:href="#DejaVuSans-53" transform="translate(432.421875 0)"/>
      <use xlink:href="#DejaVuSans-48" transform="translate(495.90625 0)"/>
      <use xlink:href="#DejaVuSans-55" transform="translate(557.4375 0)"/>
      <use xlink:href="#DejaVuSans-10" transform="translate(592.15625 0)"/>
      <use xlink:href="#DejaVuSans-55" transform="translate(628.234375 0)"/>
      <use xlink:href="#DejaVuSans-52" transform="translate(667.140625 0)"/>
      <use xlink:href="#DejaVuSans-58" transform="translate(728.328125 0)"/>
      <use xlink:href="#DejaVuSans-51" transform="translate(791.703125 0)"/>
      <use xlink:href="#DejaVuSans-47" transform="translate(855.078125 0)"/>
      <use xlink:href="#DejaVuSans-3" transform="translate(918.5625 0)"/>
      <use xlink:href="#DejaVuSans-33" transform="translate(950.34375 0)"/>
      <use xlink:href="#DejaVuSans-18" transform="translate(1010.640625 0)"/>
      <use xlink:href="#DejaVuSans-13" transform="translate(1074.265625 0)"/>
      <use xlink:href="#DejaVuSans-3" transform="translate(1137.890625 0)"/>
      <use xlink:href="#DejaVuSans-37" transform="translate(1169.671875 0)"/>
      <use xlink:href="#DejaVuSans-33" transform="translate(1230.75 0)"/>
      <use xlink:href="#DejaVuSans-32" transform="translate(1291.046875 0)"/>
      <use xlink:href="#DejaVuSans-37" transform="translate(1369.765625 0)"/>
      <use xlink:href="#DejaVuSans-3" transform="translate(1430.84375 0)"/>
      <use xlink:href="#DejaVuSans-b" transform="translate(1462.625 0)"/>
      <use xlink:href="#DejaVuSans-50" transform="translate(1501.640625 0)"/>
      <use xlink:href="#DejaVuSans-56" transform="translate(1599.046875 0)"/>
      <use xlink:href="#DejaVuSans-c" transform="translate(1651.140625 0)"/>
     </g>
    </g>
   </g>
   <g id="LineCollection_7">
    <path d="M 415.608401 233.49865 
L 415.608401 233.413622 
" clip-path="url(#pdaf659a720)" style="fill: none; stroke: #2463a6; stroke-width: 2"/>
    <path d="M 451.854277 228.578892 
L 451.854277 228.474153 
" clip-path="url(#pdaf659a720)" style="fill: none; stroke: #2463a6; stroke-width: 2"/>
    <path d="M 524.34603 223.065928 
L 524.34603 223.045732 
" clip-path="url(#pdaf659a720)" style="fill: none; stroke: #2463a6; stroke-width: 2"/>
    <path d="M 669.329536 208.895623 
L 669.329536 206.12925 
" clip-path="url(#pdaf659a720)" style="fill: none; stroke: #2463a6; stroke-width: 2"/>
   </g>
   <g id="line2d_62">
    <g clip-path="url(#pdaf659a720)">
     <use xlink:href="#m159631a84b" x="415.608401" y="233.49865" style="fill: #2463a6; stroke: #2463a6"/>
     <use xlink:href="#m159631a84b" x="451.854277" y="228.578892" style="fill: #2463a6; stroke: #2463a6"/>
     <use xlink:href="#m159631a84b" x="524.34603" y="223.065928" style="fill: #2463a6; stroke: #2463a6"/>
     <use xlink:href="#m159631a84b" x="669.329536" y="208.895623" style="fill: #2463a6; stroke: #2463a6"/>
    </g>
   </g>
   <g id="line2d_63">
    <g clip-path="url(#pdaf659a720)">
     <use xlink:href="#m159631a84b" x="415.608401" y="233.413622" style="fill: #2463a6; stroke: #2463a6"/>
     <use xlink:href="#m159631a84b" x="451.854277" y="228.474153" style="fill: #2463a6; stroke: #2463a6"/>
     <use xlink:href="#m159631a84b" x="524.34603" y="223.045732" style="fill: #2463a6; stroke: #2463a6"/>
     <use xlink:href="#m159631a84b" x="669.329536" y="206.12925" style="fill: #2463a6; stroke: #2463a6"/>
    </g>
   </g>
   <g id="LineCollection_8">
    <path d="M 415.608401 232.176608 
L 415.608401 232.057001 
" clip-path="url(#pdaf659a720)" style="fill: none; stroke: #158477; stroke-width: 2"/>
    <path d="M 451.854277 227.288551 
L 451.854277 227.149695 
" clip-path="url(#pdaf659a720)" style="fill: none; stroke: #158477; stroke-width: 2"/>
    <path d="M 524.34603 220.839575 
L 524.34603 220.789286 
" clip-path="url(#pdaf659a720)" style="fill: none; stroke: #158477; stroke-width: 2"/>
    <path d="M 669.329536 200.578304 
L 669.329536 199.222688 
" clip-path="url(#pdaf659a720)" style="fill: none; stroke: #158477; stroke-width: 2"/>
   </g>
   <g id="line2d_64">
    <g clip-path="url(#pdaf659a720)">
     <use xlink:href="#mc3b3120356" x="415.608401" y="232.176608" style="fill: #158477; stroke: #158477"/>
     <use xlink:href="#mc3b3120356" x="451.854277" y="227.288551" style="fill: #158477; stroke: #158477"/>
     <use xlink:href="#mc3b3120356" x="524.34603" y="220.839575" style="fill: #158477; stroke: #158477"/>
     <use xlink:href="#mc3b3120356" x="669.329536" y="200.578304" style="fill: #158477; stroke: #158477"/>
    </g>
   </g>
   <g id="line2d_65">
    <g clip-path="url(#pdaf659a720)">
     <use xlink:href="#mc3b3120356" x="415.608401" y="232.057001" style="fill: #158477; stroke: #158477"/>
     <use xlink:href="#mc3b3120356" x="451.854277" y="227.149695" style="fill: #158477; stroke: #158477"/>
     <use xlink:href="#mc3b3120356" x="524.34603" y="220.789286" style="fill: #158477; stroke: #158477"/>
     <use xlink:href="#mc3b3120356" x="669.329536" y="199.222688" style="fill: #158477; stroke: #158477"/>
    </g>
   </g>
   <g id="LineCollection_9">
    <path d="M 415.608401 89.169546 
L 415.608401 88.651661 
" clip-path="url(#pdaf659a720)" style="fill: none; stroke: #9263a4; stroke-width: 2"/>
    <path d="M 451.854277 86.594643 
L 451.854277 85.122457 
" clip-path="url(#pdaf659a720)" style="fill: none; stroke: #9263a4; stroke-width: 2"/>
    <path d="M 524.34603 84.209405 
L 524.34603 84.134887 
" clip-path="url(#pdaf659a720)" style="fill: none; stroke: #9263a4; stroke-width: 2"/>
    <path d="M 669.329536 75.252026 
L 669.329536 73.636171 
" clip-path="url(#pdaf659a720)" style="fill: none; stroke: #9263a4; stroke-width: 2"/>
   </g>
   <g id="line2d_66">
    <g clip-path="url(#pdaf659a720)">
     <use xlink:href="#mab7d7640e1" x="415.608401" y="89.169546" style="fill: #9263a4; stroke: #9263a4"/>
     <use xlink:href="#mab7d7640e1" x="451.854277" y="86.594643" style="fill: #9263a4; stroke: #9263a4"/>
     <use xlink:href="#mab7d7640e1" x="524.34603" y="84.209405" style="fill: #9263a4; stroke: #9263a4"/>
     <use xlink:href="#mab7d7640e1" x="669.329536" y="75.252026" style="fill: #9263a4; stroke: #9263a4"/>
    </g>
   </g>
   <g id="line2d_67">
    <g clip-path="url(#pdaf659a720)">
     <use xlink:href="#mab7d7640e1" x="415.608401" y="88.651661" style="fill: #9263a4; stroke: #9263a4"/>
     <use xlink:href="#mab7d7640e1" x="451.854277" y="85.122457" style="fill: #9263a4; stroke: #9263a4"/>
     <use xlink:href="#mab7d7640e1" x="524.34603" y="84.134887" style="fill: #9263a4; stroke: #9263a4"/>
     <use xlink:href="#mab7d7640e1" x="669.329536" y="73.636171" style="fill: #9263a4; stroke: #9263a4"/>
    </g>
   </g>
   <g id="line2d_68">
    <path d="M 415.608401 233.456136 
L 451.854277 228.526523 
L 524.34603 223.05583 
L 669.329536 207.512436 
" clip-path="url(#pdaf659a720)" style="fill: none; stroke: #2463a6; stroke-width: 2; stroke-linecap: square"/>
    <g clip-path="url(#pdaf659a720)">
     <use xlink:href="#m1e61b86c45" x="415.608401" y="233.456136" style="fill: #2463a6; stroke: #2463a6"/>
     <use xlink:href="#m1e61b86c45" x="451.854277" y="228.526523" style="fill: #2463a6; stroke: #2463a6"/>
     <use xlink:href="#m1e61b86c45" x="524.34603" y="223.05583" style="fill: #2463a6; stroke: #2463a6"/>
     <use xlink:href="#m1e61b86c45" x="669.329536" y="207.512436" style="fill: #2463a6; stroke: #2463a6"/>
    </g>
   </g>
   <g id="line2d_69">
    <path d="M 415.608401 232.116804 
L 451.854277 227.219123 
L 524.34603 220.814431 
L 669.329536 199.900496 
" clip-path="url(#pdaf659a720)" style="fill: none; stroke: #158477; stroke-width: 2; stroke-linecap: square"/>
    <g clip-path="url(#pdaf659a720)">
     <use xlink:href="#m3a0776c2f0" x="415.608401" y="232.116804" style="fill: #158477; stroke: #158477"/>
     <use xlink:href="#m3a0776c2f0" x="451.854277" y="227.219123" style="fill: #158477; stroke: #158477"/>
     <use xlink:href="#m3a0776c2f0" x="524.34603" y="220.814431" style="fill: #158477; stroke: #158477"/>
     <use xlink:href="#m3a0776c2f0" x="669.329536" y="199.900496" style="fill: #158477; stroke: #158477"/>
    </g>
   </g>
   <g id="line2d_70">
    <path d="M 415.608401 88.910604 
L 451.854277 85.85855 
L 524.34603 84.172146 
L 669.329536 74.444098 
" clip-path="url(#pdaf659a720)" style="fill: none; stroke: #9263a4; stroke-width: 2; stroke-linecap: square"/>
    <g clip-path="url(#pdaf659a720)">
     <use xlink:href="#mc2074f1aa3" x="415.608401" y="88.910604" style="fill: #9263a4; stroke: #9263a4"/>
     <use xlink:href="#mc2074f1aa3" x="451.854277" y="85.85855" style="fill: #9263a4; stroke: #9263a4"/>
     <use xlink:href="#mc2074f1aa3" x="524.34603" y="84.172146" style="fill: #9263a4; stroke: #9263a4"/>
     <use xlink:href="#mc2074f1aa3" x="669.329536" y="74.444098" style="fill: #9263a4; stroke: #9263a4"/>
    </g>
   </g>
   <g id="patch_6">
    <path d="M 402.922344 251.997656 
L 402.922344 65.643047 
" style="fill: none; stroke: #000000; stroke-width: 0.8; stroke-linejoin: miter; stroke-linecap: square"/>
   </g>
   <g id="patch_7">
    <path d="M 402.922344 251.997656 
L 709.2 251.997656 
" style="fill: none; stroke: #000000; stroke-width: 0.8; stroke-linejoin: miter; stroke-linecap: square"/>
   </g>
   <g id="text_36">
    <!-- 15.7 -->
    <g style="fill: #2463a6" transform="translate(676.329536 209.850327) scale(0.09 -0.09)">
     <defs>
      <path id="DejaVuSans-1a" d="M 525 4666 
L 3525 4666 
L 3525 4397 
L 1831 0 
L 1172 0 
L 2766 4134 
L 525 4134 
L 525 4666 
z
" transform="scale(0.015625)"/>
     </defs>
     <use xlink:href="#DejaVuSans-14"/>
     <use xlink:href="#DejaVuSans-18" transform="translate(63.625 0)"/>
     <use xlink:href="#DejaVuSans-11" transform="translate(127.25 0)"/>
     <use xlink:href="#DejaVuSans-1a" transform="translate(159.03125 0)"/>
    </g>
   </g>
   <g id="text_37">
    <!-- 18.4 -->
    <g style="fill: #158477" transform="translate(676.329536 202.238386) scale(0.09 -0.09)">
     <use xlink:href="#DejaVuSans-14"/>
     <use xlink:href="#DejaVuSans-1b" transform="translate(63.625 0)"/>
     <use xlink:href="#DejaVuSans-11" transform="translate(127.25 0)"/>
     <use xlink:href="#DejaVuSans-17" transform="translate(159.03125 0)"/>
    </g>
   </g>
   <g id="text_38">
    <!-- 62.8 -->
    <g style="fill: #9263a4" transform="translate(676.329536 76.781989) scale(0.09 -0.09)">
     <use xlink:href="#DejaVuSans-19"/>
     <use xlink:href="#DejaVuSans-15" transform="translate(63.625 0)"/>
     <use xlink:href="#DejaVuSans-11" transform="translate(127.25 0)"/>
     <use xlink:href="#DejaVuSans-1b" transform="translate(159.03125 0)"/>
    </g>
   </g>
   <g id="text_39">
    <!-- Time per output token -->
    <g transform="translate(402.922344 59.643047) scale(0.12 -0.12)">
     <use xlink:href="#DejaVuSans-37"/>
     <use xlink:href="#DejaVuSans-4c" transform="translate(58 0)"/>
     <use xlink:href="#DejaVuSans-50" transform="translate(85.78125 0)"/>
     <use xlink:href="#DejaVuSans-48" transform="translate(183.1875 0)"/>
     <use xlink:href="#DejaVuSans-3" transform="translate(244.71875 0)"/>
     <use xlink:href="#DejaVuSans-53" transform="translate(276.5 0)"/>
     <use xlink:href="#DejaVuSans-48" transform="translate(339.984375 0)"/>
     <use xlink:href="#DejaVuSans-55" transform="translate(401.515625 0)"/>
     <use xlink:href="#DejaVuSans-3" transform="translate(442.625 0)"/>
     <use xlink:href="#DejaVuSans-52" transform="translate(474.40625 0)"/>
     <use xlink:href="#DejaVuSans-58" transform="translate(535.59375 0)"/>
     <use xlink:href="#DejaVuSans-57" transform="translate(598.96875 0)"/>
     <use xlink:href="#DejaVuSans-53" transform="translate(638.171875 0)"/>
     <use xlink:href="#DejaVuSans-58" transform="translate(701.65625 0)"/>
     <use xlink:href="#DejaVuSans-57" transform="translate(765.03125 0)"/>
     <use xlink:href="#DejaVuSans-3" transform="translate(804.234375 0)"/>
     <use xlink:href="#DejaVuSans-57" transform="translate(836.015625 0)"/>
     <use xlink:href="#DejaVuSans-52" transform="translate(875.21875 0)"/>
     <use xlink:href="#DejaVuSans-4e" transform="translate(936.40625 0)"/>
     <use xlink:href="#DejaVuSans-48" transform="translate(990.75 0)"/>
     <use xlink:href="#DejaVuSans-51" transform="translate(1052.28125 0)"/>
    </g>
   </g>
  </g>
  <g id="text_40">
   <!-- Qwen3-30B-A3B FP8 | 2 RTX 3090 | vLLM 0.30.0 -->
   <g transform="translate(203.777578 13.030844) scale(0.13 -0.13)">
    <defs>
     <path id="DejaVuSans-34" d="M 2522 4238 
Q 1834 4238 1429 3725 
Q 1025 3213 1025 2328 
Q 1025 1447 1429 934 
Q 1834 422 2522 422 
Q 3209 422 3611 934 
Q 4013 1447 4013 2328 
Q 4013 3213 3611 3725 
Q 3209 4238 2522 4238 
z
M 3406 84 
L 4238 -825 
L 3475 -825 
L 2784 -78 
Q 2681 -84 2626 -87 
Q 2572 -91 2522 -91 
Q 1538 -91 948 567 
Q 359 1225 359 2328 
Q 359 3434 948 4092 
Q 1538 4750 2522 4750 
Q 3503 4750 4090 4092 
Q 4678 3434 4678 2328 
Q 4678 1516 4351 937 
Q 4025 359 3406 84 
z
" transform="scale(0.015625)"/>
     <path id="DejaVuSans-5a" d="M 269 3500 
L 844 3500 
L 1563 769 
L 2278 3500 
L 2956 3500 
L 3675 769 
L 4391 3500 
L 4966 3500 
L 4050 0 
L 3372 0 
L 2619 2869 
L 1863 0 
L 1184 0 
L 269 3500 
z
" transform="scale(0.015625)"/>
     <path id="DejaVuSans-25" d="M 1259 2228 
L 1259 519 
L 2272 519 
Q 2781 519 3026 730 
Q 3272 941 3272 1375 
Q 3272 1813 3026 2020 
Q 2781 2228 2272 2228 
L 1259 2228 
z
M 1259 4147 
L 1259 2741 
L 2194 2741 
Q 2656 2741 2882 2914 
Q 3109 3088 3109 3444 
Q 3109 3797 2882 3972 
Q 2656 4147 2194 4147 
L 1259 4147 
z
M 628 4666 
L 2241 4666 
Q 2963 4666 3353 4366 
Q 3744 4066 3744 3513 
Q 3744 3084 3544 2831 
Q 3344 2578 2956 2516 
Q 3422 2416 3680 2098 
Q 3938 1781 3938 1306 
Q 3938 681 3513 340 
Q 3088 0 2303 0 
L 628 0 
L 628 4666 
z
" transform="scale(0.015625)"/>
     <path id="DejaVuSans-24" d="M 2188 4044 
L 1331 1722 
L 3047 1722 
L 2188 4044 
z
M 1831 4666 
L 2547 4666 
L 4325 0 
L 3669 0 
L 3244 1197 
L 1141 1197 
L 716 0 
L 50 0 
L 1831 4666 
z
" transform="scale(0.015625)"/>
     <path id="DejaVuSans-29" d="M 628 4666 
L 3309 4666 
L 3309 4134 
L 1259 4134 
L 1259 2759 
L 3109 2759 
L 3109 2228 
L 1259 2228 
L 1259 0 
L 628 0 
L 628 4666 
z
" transform="scale(0.015625)"/>
     <path id="DejaVuSans-5f" d="M 1344 4891 
L 1344 -1509 
L 813 -1509 
L 813 4891 
L 1344 4891 
z
" transform="scale(0.015625)"/>
     <path id="DejaVuSans-35" d="M 2841 2188 
Q 3044 2119 3236 1894 
Q 3428 1669 3622 1275 
L 4263 0 
L 3584 0 
L 2988 1197 
Q 2756 1666 2539 1819 
Q 2322 1972 1947 1972 
L 1259 1972 
L 1259 0 
L 628 0 
L 628 4666 
L 2053 4666 
Q 2853 4666 3247 4331 
Q 3641 3997 3641 3322 
Q 3641 2881 3436 2590 
Q 3231 2300 2841 2188 
z
M 1259 4147 
L 1259 2491 
L 2053 2491 
Q 2509 2491 2742 2702 
Q 2975 2913 2975 3322 
Q 2975 3731 2742 3939 
Q 2509 4147 2053 4147 
L 1259 4147 
z
" transform="scale(0.015625)"/>
     <path id="DejaVuSans-3b" d="M 403 4666 
L 1081 4666 
L 2241 2931 
L 3406 4666 
L 4084 4666 
L 2584 2425 
L 4184 0 
L 3506 0 
L 2194 1984 
L 872 0 
L 191 0 
L 1856 2491 
L 403 4666 
z
" transform="scale(0.015625)"/>
     <path id="DejaVuSans-59" d="M 191 3500 
L 800 3500 
L 1894 563 
L 2988 3500 
L 3597 3500 
L 2284 0 
L 1503 0 
L 191 3500 
z
" transform="scale(0.015625)"/>
     <path id="DejaVuSans-2f" d="M 628 4666 
L 1259 4666 
L 1259 531 
L 3531 531 
L 3531 0 
L 628 0 
L 628 4666 
z
" transform="scale(0.015625)"/>
    </defs>
    <use xlink:href="#DejaVuSans-34"/>
    <use xlink:href="#DejaVuSans-5a" transform="translate(78.71875 0)"/>
    <use xlink:href="#DejaVuSans-48" transform="translate(160.5 0)"/>
    <use xlink:href="#DejaVuSans-51" transform="translate(222.03125 0)"/>
    <use xlink:href="#DejaVuSans-16" transform="translate(285.40625 0)"/>
    <use xlink:href="#DejaVuSans-10" transform="translate(349.03125 0)"/>
    <use xlink:href="#DejaVuSans-16" transform="translate(385.109375 0)"/>
    <use xlink:href="#DejaVuSans-13" transform="translate(448.734375 0)"/>
    <use xlink:href="#DejaVuSans-25" transform="translate(512.359375 0)"/>
    <use xlink:href="#DejaVuSans-10" transform="translate(580.96875 0)"/>
    <use xlink:href="#DejaVuSans-24" transform="translate(614.84375 0)"/>
    <use xlink:href="#DejaVuSans-16" transform="translate(683.25 0)"/>
    <use xlink:href="#DejaVuSans-25" transform="translate(746.875 0)"/>
    <use xlink:href="#DejaVuSans-3" transform="translate(815.484375 0)"/>
    <use xlink:href="#DejaVuSans-29" transform="translate(847.265625 0)"/>
    <use xlink:href="#DejaVuSans-33" transform="translate(904.78125 0)"/>
    <use xlink:href="#DejaVuSans-1b" transform="translate(965.078125 0)"/>
    <use xlink:href="#DejaVuSans-3" transform="translate(1028.703125 0)"/>
    <use xlink:href="#DejaVuSans-5f" transform="translate(1060.484375 0)"/>
    <use xlink:href="#DejaVuSans-3" transform="translate(1094.171875 0)"/>
    <use xlink:href="#DejaVuSans-15" transform="translate(1125.953125 0)"/>
    <use xlink:href="#DejaVuSans-3" transform="translate(1189.578125 0)"/>
    <use xlink:href="#DejaVuSans-35" transform="translate(1221.359375 0)"/>
    <use xlink:href="#DejaVuSans-37" transform="translate(1283.5625 0)"/>
    <use xlink:href="#DejaVuSans-3b" transform="translate(1344.640625 0)"/>
    <use xlink:href="#DejaVuSans-3" transform="translate(1413.140625 0)"/>
    <use xlink:href="#DejaVuSans-16" transform="translate(1444.921875 0)"/>
    <use xlink:href="#DejaVuSans-13" transform="translate(1508.546875 0)"/>
    <use xlink:href="#DejaVuSans-1c" transform="translate(1572.171875 0)"/>
    <use xlink:href="#DejaVuSans-13" transform="translate(1635.796875 0)"/>
    <use xlink:href="#DejaVuSans-3" transform="translate(1699.421875 0)"/>
    <use xlink:href="#DejaVuSans-5f" transform="translate(1731.203125 0)"/>
    <use xlink:href="#DejaVuSans-3" transform="translate(1764.890625 0)"/>
    <use xlink:href="#DejaVuSans-59" transform="translate(1796.671875 0)"/>
    <use xlink:href="#DejaVuSans-2f" transform="translate(1855.859375 0)"/>
    <use xlink:href="#DejaVuSans-2f" transform="translate(1911.578125 0)"/>
    <use xlink:href="#DejaVuSans-30" transform="translate(1967.296875 0)"/>
    <use xlink:href="#DejaVuSans-3" transform="translate(2053.578125 0)"/>
    <use xlink:href="#DejaVuSans-13" transform="translate(2085.359375 0)"/>
    <use xlink:href="#DejaVuSans-11" transform="translate(2148.984375 0)"/>
    <use xlink:href="#DejaVuSans-16" transform="translate(2180.765625 0)"/>
    <use xlink:href="#DejaVuSans-13" transform="translate(2244.390625 0)"/>
    <use xlink:href="#DejaVuSans-11" transform="translate(2308.015625 0)"/>
    <use xlink:href="#DejaVuSans-13" transform="translate(2339.796875 0)"/>
   </g>
  </g>
  <g id="text_41">
   <!-- 1024 input / 256 output tokens. Points: 2-round means. Bars: observed min/max, not confidence intervals. -->
   <g style="fill: #555555" transform="translate(36 304.956) scale(0.083 -0.083)">
    <defs>
     <path id="DejaVuSans-1d" d="M 750 794 
L 1409 794 
L 1409 0 
L 750 0 
L 750 794 
z
M 750 3309 
L 1409 3309 
L 1409 2516 
L 750 2516 
L 750 3309 
z
" transform="scale(0.015625)"/>
     <path id="DejaVuSans-45" d="M 3116 1747 
Q 3116 2381 2855 2742 
Q 2594 3103 2138 3103 
Q 1681 3103 1420 2742 
Q 1159 2381 1159 1747 
Q 1159 1113 1420 752 
Q 1681 391 2138 391 
Q 2594 391 2855 752 
Q 3116 1113 3116 1747 
z
M 1159 2969 
Q 1341 3281 1617 3432 
Q 1894 3584 2278 3584 
Q 2916 3584 3314 3078 
Q 3713 2572 3713 1747 
Q 3713 922 3314 415 
Q 2916 -91 2278 -91 
Q 1894 -91 1617 61 
Q 1341 213 1159 525 
L 1159 0 
L 581 0 
L 581 4863 
L 1159 4863 
L 1159 2969 
z
" transform="scale(0.015625)"/>
     <path id="DejaVuSans-f" d="M 750 794 
L 1409 794 
L 1409 256 
L 897 -744 
L 494 -744 
L 750 256 
L 750 794 
z
" transform="scale(0.015625)"/>
    </defs>
    <use xlink:href="#DejaVuSans-14"/>
    <use xlink:href="#DejaVuSans-13" transform="translate(63.625 0)"/>
    <use xlink:href="#DejaVuSans-15" transform="translate(127.25 0)"/>
    <use xlink:href="#DejaVuSans-17" transform="translate(190.875 0)"/>
    <use xlink:href="#DejaVuSans-3" transform="translate(254.5 0)"/>
    <use xlink:href="#DejaVuSans-4c" transform="translate(286.28125 0)"/>
    <use xlink:href="#DejaVuSans-51" transform="translate(314.0625 0)"/>
    <use xlink:href="#DejaVuSans-53" transform="translate(377.4375 0)"/>
    <use xlink:href="#DejaVuSans-58" transform="translate(440.921875 0)"/>
    <use xlink:href="#DejaVuSans-57" transform="translate(504.296875 0)"/>
    <use xlink:href="#DejaVuSans-3" transform="translate(543.5 0)"/>
    <use xlink:href="#DejaVuSans-12" transform="translate(575.28125 0)"/>
    <use xlink:href="#DejaVuSans-3" transform="translate(608.96875 0)"/>
    <use xlink:href="#DejaVuSans-15" transform="translate(640.75 0)"/>
    <use xlink:href="#DejaVuSans-18" transform="translate(704.375 0)"/>
    <use xlink:href="#DejaVuSans-19" transform="translate(768 0)"/>
    <use xlink:href="#DejaVuSans-3" transform="translate(831.625 0)"/>
    <use xlink:href="#DejaVuSans-52" transform="translate(863.40625 0)"/>
    <use xlink:href="#DejaVuSans-58" transform="translate(924.59375 0)"/>
    <use xlink:href="#DejaVuSans-57" transform="translate(987.96875 0)"/>
    <use xlink:href="#DejaVuSans-53" transform="translate(1027.171875 0)"/>
    <use xlink:href="#DejaVuSans-58" transform="translate(1090.65625 0)"/>
    <use xlink:href="#DejaVuSans-57" transform="translate(1154.03125 0)"/>
    <use xlink:href="#DejaVuSans-3" transform="translate(1193.234375 0)"/>
    <use xlink:href="#DejaVuSans-57" transform="translate(1225.015625 0)"/>
    <use xlink:href="#DejaVuSans-52" transform="translate(1264.21875 0)"/>
    <use xlink:href="#DejaVuSans-4e" transform="translate(1325.40625 0)"/>
    <use xlink:href="#DejaVuSans-48" transform="translate(1379.75 0)"/>
    <use xlink:href="#DejaVuSans-51" transform="translate(1441.28125 0)"/>
    <use xlink:href="#DejaVuSans-56" transform="translate(1504.65625 0)"/>
    <use xlink:href="#DejaVuSans-11" transform="translate(1556.75 0)"/>
    <use xlink:href="#DejaVuSans-3" transform="translate(1588.53125 0)"/>
    <use xlink:href="#DejaVuSans-33" transform="translate(1620.3125 0)"/>
    <use xlink:href="#DejaVuSans-52" transform="translate(1677.046875 0)"/>
    <use xlink:href="#DejaVuSans-4c" transform="translate(1738.234375 0)"/>
    <use xlink:href="#DejaVuSans-51" transform="translate(1766.015625 0)"/>
    <use xlink:href="#DejaVuSans-57" transform="translate(1829.390625 0)"/>
    <use xlink:href="#DejaVuSans-56" transform="translate(1868.59375 0)"/>
    <use xlink:href="#DejaVuSans-1d" transform="translate(1920.6875 0)"/>
    <use xlink:href="#DejaVuSans-3" transform="translate(1954.375 0)"/>
    <use xlink:href="#DejaVuSans-15" transform="translate(1986.15625 0)"/>
    <use xlink:href="#DejaVuSans-10" transform="translate(2049.78125 0)"/>
    <use xlink:href="#DejaVuSans-55" transform="translate(2085.859375 0)"/>
    <use xlink:href="#DejaVuSans-52" transform="translate(2124.765625 0)"/>
    <use xlink:href="#DejaVuSans-58" transform="translate(2185.953125 0)"/>
    <use xlink:href="#DejaVuSans-51" transform="translate(2249.328125 0)"/>
    <use xlink:href="#DejaVuSans-47" transform="translate(2312.703125 0)"/>
    <use xlink:href="#DejaVuSans-3" transform="translate(2376.1875 0)"/>
    <use xlink:href="#DejaVuSans-50" transform="translate(2407.96875 0)"/>
    <use xlink:href="#DejaVuSans-48" transform="translate(2505.375 0)"/>
    <use xlink:href="#DejaVuSans-44" transform="translate(2566.90625 0)"/>
    <use xlink:href="#DejaVuSans-51" transform="translate(2628.1875 0)"/>
    <use xlink:href="#DejaVuSans-56" transform="translate(2691.5625 0)"/>
    <use xlink:href="#DejaVuSans-11" transform="translate(2743.65625 0)"/>
    <use xlink:href="#DejaVuSans-3" transform="translate(2775.4375 0)"/>
    <use xlink:href="#DejaVuSans-25" transform="translate(2807.21875 0)"/>
    <use xlink:href="#DejaVuSans-44" transform="translate(2875.828125 0)"/>
    <use xlink:href="#DejaVuSans-55" transform="translate(2937.109375 0)"/>
    <use xlink:href="#DejaVuSans-56" transform="translate(2978.21875 0)"/>
    <use xlink:href="#DejaVuSans-1d" transform="translate(3030.3125 0)"/>
    <use xlink:href="#DejaVuSans-3" transform="translate(3064 0)"/>
    <use xlink:href="#DejaVuSans-52" transform="translate(3095.78125 0)"/>
    <use xlink:href="#DejaVuSans-45" transform="translate(3156.96875 0)"/>
    <use xlink:href="#DejaVuSans-56" transform="translate(3220.453125 0)"/>
    <use xlink:href="#DejaVuSans-48" transform="translate(3272.546875 0)"/>
    <use xlink:href="#DejaVuSans-55" transform="translate(3334.078125 0)"/>
    <use xlink:href="#DejaVuSans-59" transform="translate(3375.1875 0)"/>
    <use xlink:href="#DejaVuSans-48" transform="translate(3434.375 0)"/>
    <use xlink:href="#DejaVuSans-47" transform="translate(3495.90625 0)"/>
    <use xlink:href="#DejaVuSans-3" transform="translate(3559.390625 0)"/>
    <use xlink:href="#DejaVuSans-50" transform="translate(3591.171875 0)"/>
    <use xlink:href="#DejaVuSans-4c" transform="translate(3688.578125 0)"/>
    <use xlink:href="#DejaVuSans-51" transform="translate(3716.359375 0)"/>
    <use xlink:href="#DejaVuSans-12" transform="translate(3779.734375 0)"/>
    <use xlink:href="#DejaVuSans-50" transform="translate(3813.421875 0)"/>
    <use xlink:href="#DejaVuSans-44" transform="translate(3910.828125 0)"/>
    <use xlink:href="#DejaVuSans-5b" transform="translate(3972.109375 0)"/>
    <use xlink:href="#DejaVuSans-f" transform="translate(4031.296875 0)"/>
    <use xlink:href="#DejaVuSans-3" transform="translate(4063.078125 0)"/>
    <use xlink:href="#DejaVuSans-51" transform="translate(4094.859375 0)"/>
    <use xlink:href="#DejaVuSans-52" transform="translate(4158.234375 0)"/>
    <use xlink:href="#DejaVuSans-57" transform="translate(4219.421875 0)"/>
    <use xlink:href="#DejaVuSans-3" transform="translate(4258.625 0)"/>
    <use xlink:href="#DejaVuSans-46" transform="translate(4290.40625 0)"/>
    <use xlink:href="#DejaVuSans-52" transform="translate(4345.390625 0)"/>
    <use xlink:href="#DejaVuSans-51" transform="translate(4406.578125 0)"/>
    <use xlink:href="#DejaVuSans-13af" transform="translate(4469.953125 0)"/>
    <use xlink:href="#DejaVuSans-47" transform="translate(4532.9375 0)"/>
    <use xlink:href="#DejaVuSans-48" transform="translate(4596.421875 0)"/>
    <use xlink:href="#DejaVuSans-51" transform="translate(4657.953125 0)"/>
    <use xlink:href="#DejaVuSans-46" transform="translate(4721.328125 0)"/>
    <use xlink:href="#DejaVuSans-48" transform="translate(4776.3125 0)"/>
    <use xlink:href="#DejaVuSans-3" transform="translate(4837.84375 0)"/>
    <use xlink:href="#DejaVuSans-4c" transform="translate(4869.625 0)"/>
    <use xlink:href="#DejaVuSans-51" transform="translate(4897.40625 0)"/>
    <use xlink:href="#DejaVuSans-57" transform="translate(4960.78125 0)"/>
    <use xlink:href="#DejaVuSans-48" transform="translate(4999.984375 0)"/>
    <use xlink:href="#DejaVuSans-55" transform="translate(5061.515625 0)"/>
    <use xlink:href="#DejaVuSans-59" transform="translate(5102.625 0)"/>
    <use xlink:href="#DejaVuSans-44" transform="translate(5161.8125 0)"/>
    <use xlink:href="#DejaVuSans-4f" transform="translate(5223.09375 0)"/>
    <use xlink:href="#DejaVuSans-56" transform="translate(5250.875 0)"/>
    <use xlink:href="#DejaVuSans-11" transform="translate(5302.96875 0)"/>
   </g>
  </g>
 </g>
 <defs>
  <clipPath id="pf7dce4a092">
   <rect x="51.562344" y="65.643047" width="306.277656" height="186.354609"/>
  </clipPath>
  <clipPath id="pdaf659a720">
   <rect x="402.922344" y="65.643047" width="306.277656" height="186.354609"/>
  </clipPath>
 </defs>
</svg>
